<svg xmlns="http://www.w3.org/2000/svg" width="600" height="300"><rect width="600" height="300" x="0" y="0" fill="#f3f7ef" id="background"/><g id="viz"><g transform="translate(0,0)"><g transform="translate(0,10)"><g><path fill="#bd10e0" d="M0,132.46875C1.6853932584269662,132.46875,1.6853932584269662,132.46875,3.3707865168539324,132.46875C5.056179775280898,132.46875,5.056179775280898,133.3125,6.741573033707865,133.3125C8.42696629213483,133.3125,8.42696629213483,133.3125,10.112359550561797,133.3125C11.797752808988763,133.3125,11.797752808988763,133.3125,13.48314606741573,133.3125C15.168539325842698,133.3125,15.168539325842698,133.3125,16.853932584269664,133.3125C18.539325842696627,133.3125,18.539325842696627,133.3125,20.224719101123593,133.3125C21.91011235955056,133.3125,21.91011235955056,132.46875,23.595505617977526,132.46875C25.280898876404493,132.46875,25.280898876404493,132.46875,26.96629213483146,132.46875C28.651685393258425,132.46875,28.651685393258425,134.15625,30.337078651685392,134.15625C32.02247191011236,134.15625,32.02247191011236,133.3125,33.70786516853933,133.3125C35.39325842696629,133.3125,35.39325842696629,132.46875,37.078651685393254,132.46875C38.764044943820224,132.46875,38.764044943820224,133.3125,40.44943820224719,133.3125C42.13483146067415,133.3125,42.13483146067415,133.3125,43.82022471910112,133.3125C45.50561797752809,133.3125,45.50561797752809,132.46875,47.19101123595505,132.46875C48.876404494382015,132.46875,48.876404494382015,131.625,50.561797752808985,131.625C52.247191011235955,131.625,52.247191011235955,131.625,53.93258426966292,131.625C55.61797752808988,131.625,55.61797752808988,132.46875,57.30337078651685,132.46875C58.98876404494382,132.46875,58.98876404494382,133.3125,60.674157303370784,133.3125C62.35955056179775,133.3125,62.35955056179775,133.3125,64.04494382022472,133.3125C65.73033707865169,133.3125,65.73033707865169,132.46875,67.41573033707866,132.46875C69.10112359550561,132.46875,69.10112359550561,133.3125,70.78651685393258,133.3125C72.47191011235955,133.3125,72.47191011235955,132.46875,74.15730337078651,132.46875C75.84269662921349,132.46875,75.84269662921349,132.46875,77.52808988764046,132.46875C79.21348314606742,132.46875,79.21348314606742,133.3125,80.89887640449437,133.3125C82.58426966292134,133.3125,82.58426966292134,133.3125,84.26966292134833,133.3125C85.95505617977528,133.3125,85.95505617977528,134.15625,87.64044943820224,134.15625C89.32584269662921,134.15625,89.32584269662921,133.3125,91.01123595505618,133.3125C92.69662921348313,133.3125,92.69662921348313,133.3125,94.3820224719101,133.3125C96.06741573033707,133.3125,96.06741573033707,133.3125,97.75280898876404,133.3125C99.43820224719101,133.3125,99.43820224719101,133.3125,101.12359550561797,133.3125C102.80898876404494,133.3125,102.80898876404494,133.3125,104.49438202247191,133.3125C106.17977528089887,133.3125,106.17977528089887,133.3125,107.86516853932584,133.3125C109.5505617977528,133.3125,109.5505617977528,134.15625,111.23595505617978,134.15625C112.92134831460675,134.15625,112.92134831460675,133.3125,114.6067415730337,133.3125C116.29213483146067,133.3125,116.29213483146067,133.3125,117.97752808988764,133.3125C119.6629213483146,133.3125,119.6629213483146,132.46875,121.34831460674157,132.46875C123.03370786516854,132.46875,123.03370786516854,133.3125,124.71910112359551,133.3125C126.40449438202248,133.3125,126.40449438202248,133.3125,128.08988764044943,133.3125C129.77528089887642,133.3125,129.77528089887642,133.3125,131.46067415730337,133.3125C133.14606741573033,133.3125,133.14606741573033,133.3125,134.8314606741573,133.3125C136.5168539325843,133.3125,136.5168539325843,133.3125,138.20224719101125,133.3125C139.8876404494382,133.3125,139.8876404494382,134.15625,141.57303370786516,134.15625C143.25842696629212,134.15625,143.25842696629212,133.3125,144.9438202247191,133.3125C146.62921348314606,133.3125,146.62921348314606,133.3125,148.31460674157302,133.3125C150,133.3125,150,133.3125,151.68539325842698,133.3125C153.37078651685397,133.3125,153.37078651685397,134.15625,155.05617977528092,134.15625C156.74157303370788,134.15625,156.74157303370788,133.3125,158.4269662921348,133.3125C160.1123595505618,133.3125,160.1123595505618,133.3125,161.79775280898875,133.3125C163.4831460674157,133.3125,163.4831460674157,134.15625,165.1685393258427,134.15625C166.85393258426967,134.15625,166.85393258426967,133.3125,168.53932584269666,133.3125C170.22471910112358,133.3125,170.22471910112358,133.3125,171.91011235955054,133.3125C173.5955056179775,133.3125,173.5955056179775,133.3125,175.28089887640448,133.3125C176.96629213483146,133.3125,176.96629213483146,133.3125,178.65168539325842,133.3125C180.33707865168537,133.3125,180.33707865168537,133.3125,182.02247191011236,133.3125C183.7078651685393,133.3125,183.7078651685393,133.3125,185.39325842696627,133.3125C187.07865168539325,133.3125,187.07865168539325,133.3125,188.7640449438202,133.3125C190.44943820224717,133.3125,190.44943820224717,133.3125,192.13483146067415,133.3125C193.82022471910113,133.3125,193.82022471910113,133.3125,195.5056179775281,133.3125C197.19101123595505,133.3125,197.19101123595505,133.3125,198.876404494382,133.3125C200.56179775280896,133.3125,200.56179775280896,132.46875,202.24719101123594,132.46875C203.93258426966293,132.46875,203.93258426966293,132.46875,205.61797752808988,132.46875C207.30337078651684,132.46875,207.30337078651684,132.46875,208.98876404494382,132.46875C210.67415730337078,132.46875,210.67415730337078,133.3125,212.35955056179773,133.3125C214.04494382022472,133.3125,214.04494382022472,133.3125,215.73033707865167,133.3125C217.41573033707863,133.3125,217.41573033707863,132.46875,219.1011235955056,132.46875C220.7865168539326,132.46875,220.7865168539326,132.46875,222.47191011235955,132.46875C224.1573033707865,132.46875,224.1573033707865,133.3125,225.84269662921346,133.3125C227.52808988764042,133.3125,227.52808988764042,131.625,229.2134831460674,131.625C230.8988764044944,131.625,230.8988764044944,132.46875,232.58426966292134,132.46875C234.2696629213483,132.46875,234.2696629213483,132.46875,235.95505617977528,132.46875C237.64044943820224,132.46875,237.64044943820224,135,239.3258426966292,135C241.01123595505618,135,241.01123595505618,135.84375,242.69662921348313,135.84375C244.3820224719101,135.84375,244.3820224719101,131.625,246.06741573033707,131.625C247.75280898876406,131.625,247.75280898876406,113.90625,249.43820224719101,113.90625C251.12359550561797,113.90625,251.12359550561797,135,252.80898876404493,135C254.49438202247188,135,254.49438202247188,124.03125,256.17977528089887,124.03125C257.86516853932585,124.03125,257.86516853932585,122.34375,259.55056179775283,122.34375C261.2359550561798,122.34375,261.2359550561798,130.78125,262.92134831460675,130.78125C264.6067415730337,130.78125,264.6067415730337,86.0625,266.29213483146066,86.0625C267.97752808988764,86.0625,267.97752808988764,137.53125,269.6629213483146,137.53125C271.3483146067416,137.53125,271.3483146067416,135.84375,273.03370786516854,135.84375C274.7191011235955,135.84375,274.7191011235955,125.71874999999999,276.4044943820225,125.71874999999999C278.08988764044943,125.71874999999999,278.08988764044943,116.4375,279.77528089887636,116.4375C281.46067415730334,116.4375,281.46067415730334,134.15625,283.14606741573033,134.15625C284.8314606741573,134.15625,284.8314606741573,133.3125,286.5168539325843,133.3125C288.2022471910112,133.3125,288.2022471910112,124.875,289.8876404494382,124.875C291.5730337078652,124.875,291.5730337078652,129.9375,293.2584269662921,129.9375C294.94382022471905,129.9375,294.94382022471905,132.46875,296.62921348314603,132.46875C298.314606741573,132.46875,298.314606741573,132.46875,300,132.46875C301.685393258427,132.46875,301.685393258427,126.5625,303.37078651685397,126.5625C305.05617977528095,126.5625,305.05617977528095,126.5625,306.7415730337079,126.5625C308.42696629213486,126.5625,308.42696629213486,129.09375,310.11235955056185,129.09375C311.7977528089888,129.09375,311.7977528089888,129.09375,313.48314606741576,129.09375C315.1685393258427,129.09375,315.1685393258427,131.625,316.8539325842696,131.625C318.5393258426966,131.625,318.5393258426966,129.9375,320.2247191011236,129.9375C321.91011235955057,129.9375,321.91011235955057,129.09375,323.5955056179775,129.09375C325.2808988764045,129.09375,325.2808988764045,129.09375,326.96629213483146,129.09375C328.6516853932584,129.09375,328.6516853932584,129.9375,330.3370786516854,129.9375C332.02247191011236,129.9375,332.02247191011236,128.25,333.70786516853934,128.25C335.3932584269663,128.25,335.3932584269663,129.9375,337.0786516853933,129.9375C338.7640449438203,129.9375,338.7640449438203,125.71874999999999,340.4494382022472,125.71874999999999C342.13483146067415,125.71874999999999,342.13483146067415,125.71874999999999,343.8202247191011,125.71874999999999C345.50561797752806,125.71874999999999,345.50561797752806,124.03125,347.19101123595505,124.03125C348.876404494382,124.03125,348.876404494382,124.875,350.56179775280896,124.875C352.24719101123594,124.875,352.24719101123594,117.28124999999999,353.9325842696629,117.28124999999999C355.6179775280899,117.28124999999999,355.6179775280899,110.53125000000001,357.30337078651684,110.53125000000001C358.9887640449438,110.53125000000001,358.9887640449438,113.90625,360.6741573033708,113.90625C362.35955056179773,113.90625,362.35955056179773,118.96875000000001,364.0449438202247,118.96875000000001C365.7303370786517,118.96875000000001,365.7303370786517,114.75000000000001,367.4157303370787,114.75000000000001C369.1011235955056,114.75000000000001,369.1011235955056,113.90625,370.78651685393254,113.90625C372.4719101123595,113.90625,372.4719101123595,118.125,374.1573033707865,118.125C375.8426966292135,118.125,375.8426966292135,118.96875000000001,377.5280898876404,118.96875000000001C379.2134831460674,118.96875000000001,379.2134831460674,118.125,380.8988764044944,118.125C382.5842696629213,118.125,382.5842696629213,118.125,384.2696629213483,118.125C385.9550561797753,118.125,385.9550561797753,118.96875000000001,387.64044943820227,118.96875000000001C389.32584269662925,118.96875000000001,389.32584269662925,118.125,391.0112359550562,118.125C392.69662921348316,118.125,392.69662921348316,116.4375,394.38202247191015,116.4375C396.0674157303371,116.4375,396.0674157303371,121.49999999999999,397.752808988764,121.49999999999999C399.438202247191,121.49999999999999,399.438202247191,118.96875000000001,401.12359550561797,118.96875000000001C402.8089887640449,118.96875000000001,402.8089887640449,122.34375,404.4943820224719,122.34375C406.17977528089887,122.34375,406.17977528089887,117.28124999999999,407.86516853932585,117.28124999999999C409.55056179775283,117.28124999999999,409.55056179775283,124.875,411.23595505617976,124.875C412.92134831460675,124.875,412.92134831460675,122.34375,414.60674157303373,122.34375C416.29213483146066,122.34375,416.29213483146066,122.34375,417.97752808988764,122.34375C419.6629213483146,122.34375,419.6629213483146,121.49999999999999,421.3483146067416,121.49999999999999C423.03370786516854,121.49999999999999,423.03370786516854,123.18750000000001,424.71910112359546,123.18750000000001C426.40449438202245,123.18750000000001,426.40449438202245,125.71874999999999,428.08988764044943,125.71874999999999C429.7752808988764,125.71874999999999,429.7752808988764,123.18750000000001,431.46067415730334,123.18750000000001C433.14606741573033,123.18750000000001,433.14606741573033,122.34375,434.8314606741573,122.34375C436.51685393258424,122.34375,436.51685393258424,124.875,438.2022471910112,124.875C439.8876404494382,124.875,439.8876404494382,124.875,441.5730337078652,124.875C443.2584269662922,124.875,443.2584269662922,126.5625,444.9438202247191,126.5625C446.6292134831461,126.5625,446.6292134831461,128.25,448.3146067415731,128.25C450,128.25,450,128.25,451.6853932584269,128.25C453.3707865168539,128.25,453.3707865168539,125.71874999999999,455.0561797752809,125.71874999999999C456.7415730337078,125.71874999999999,456.7415730337078,126.5625,458.4269662921348,126.5625C460.1123595505618,126.5625,460.1123595505618,127.40625000000001,461.7977528089888,127.40625000000001C463.48314606741576,127.40625000000001,463.48314606741576,128.25,465.1685393258427,128.25C466.85393258426967,128.25,466.85393258426967,129.09375,468.53932584269666,129.09375C470.2247191011236,129.09375,470.2247191011236,129.09375,471.91011235955057,129.09375C473.59550561797755,129.09375,473.59550561797755,125.71874999999999,475.28089887640454,125.71874999999999C476.96629213483146,125.71874999999999,476.96629213483146,127.40625000000001,478.6516853932584,127.40625000000001C480.3370786516854,127.40625000000001,480.3370786516854,126.5625,482.02247191011236,126.5625C483.70786516853934,126.5625,483.70786516853934,126.5625,485.39325842696627,126.5625C487.07865168539325,126.5625,487.07865168539325,125.71874999999999,488.76404494382024,125.71874999999999C490.44943820224717,125.71874999999999,490.44943820224717,127.40625000000001,492.13483146067415,127.40625000000001C493.82022471910113,127.40625000000001,493.82022471910113,124.875,495.5056179775281,124.875C497.1910112359551,124.875,497.1910112359551,124.875,498.87640449438203,124.875C500.561797752809,124.875,500.561797752809,124.875,502.247191011236,124.875C503.9325842696629,124.875,503.9325842696629,124.03125,505.61797752808985,124.03125C507.30337078651684,124.03125,507.30337078651684,124.875,508.9887640449438,124.875C510.67415730337075,124.875,510.67415730337075,124.03125,512.3595505617977,124.03125C514.0449438202247,124.03125,514.0449438202247,125.71874999999999,515.7303370786517,125.71874999999999C517.4157303370787,125.71874999999999,517.4157303370787,123.18750000000001,519.1011235955057,123.18750000000001C520.7865168539327,123.18750000000001,520.7865168539327,124.03125,522.4719101123595,124.03125C524.1573033707865,124.03125,524.1573033707865,123.18750000000001,525.8426966292135,123.18750000000001C527.5280898876405,123.18750000000001,527.5280898876405,125.71874999999999,529.2134831460675,125.71874999999999C530.8988764044943,125.71874999999999,530.8988764044943,124.875,532.5842696629213,124.875C534.2696629213483,124.875,534.2696629213483,125.71874999999999,535.9550561797753,125.71874999999999C537.6404494382023,125.71874999999999,537.6404494382023,125.71874999999999,539.3258426966293,125.71874999999999C541.0112359550562,125.71874999999999,541.0112359550562,124.875,542.6966292134831,124.875C544.3820224719101,124.875,544.3820224719101,126.5625,546.0674157303371,126.5625C547.7528089887641,126.5625,547.7528089887641,125.71874999999999,549.438202247191,125.71874999999999C551.123595505618,125.71874999999999,551.123595505618,125.71874999999999,552.808988764045,125.71874999999999C554.4943820224719,125.71874999999999,554.4943820224719,124.03125,556.1797752808989,124.03125C557.8651685393259,124.03125,557.8651685393259,124.03125,559.5505617977527,124.03125C561.2359550561797,124.03125,561.2359550561797,122.34375,562.9213483146067,122.34375C564.6067415730337,122.34375,564.6067415730337,124.875,566.2921348314607,124.875C567.9775280898876,124.875,567.9775280898876,125.71874999999999,569.6629213483146,125.71874999999999C571.3483146067416,125.71874999999999,571.3483146067416,124.03125,573.0337078651686,124.03125C574.7191011235955,124.03125,574.7191011235955,125.71874999999999,576.4044943820224,125.71874999999999C578.0898876404494,125.71874999999999,578.0898876404494,124.875,579.7752808988764,124.875C581.4606741573034,124.875,581.4606741573034,125.71874999999999,583.1460674157304,125.71874999999999C584.8314606741574,125.71874999999999,584.8314606741574,125.71874999999999,586.5168539325842,125.71874999999999C588.2022471910112,125.71874999999999,588.2022471910112,124.03125,589.8876404494382,124.03125C591.5730337078651,124.03125,591.5730337078651,124.03125,593.2584269662921,124.03125C594.943820224719,124.03125,594.943820224719,124.875,596.629213483146,124.875C598.314606741573,124.875,598.314606741573,124.875,600,124.875L600,158.625C598.314606741573,158.625,598.314606741573,158.625,596.629213483146,158.625C594.943820224719,158.625,594.943820224719,159.46875,593.2584269662921,159.46875C591.5730337078651,159.46875,591.5730337078651,159.46875,589.8876404494382,159.46875C588.2022471910112,159.46875,588.2022471910112,159.46875,586.5168539325842,159.46875C584.8314606741574,159.46875,584.8314606741574,161.15625,583.1460674157304,161.15625C581.4606741573034,161.15625,581.4606741573034,160.3125,579.7752808988764,160.3125C578.0898876404494,160.3125,578.0898876404494,159.46875,576.4044943820224,159.46875C574.7191011235955,159.46875,574.7191011235955,161.15625,573.0337078651686,161.15625C571.3483146067416,161.15625,571.3483146067416,161.15625,569.6629213483146,161.15625C567.9775280898876,161.15625,567.9775280898876,160.3125,566.2921348314607,160.3125C564.6067415730337,160.3125,564.6067415730337,162.84375,562.9213483146067,162.84375C561.2359550561797,162.84375,561.2359550561797,161.15625,559.5505617977527,161.15625C557.8651685393259,161.15625,557.8651685393259,161.15625,556.1797752808989,161.15625C554.4943820224719,161.15625,554.4943820224719,159.46875,552.808988764045,159.46875C551.123595505618,159.46875,551.123595505618,161.15625,549.438202247191,161.15625C547.7528089887641,161.15625,547.7528089887641,160.3125,546.0674157303371,160.3125C544.3820224719101,160.3125,544.3820224719101,160.3125,542.6966292134831,160.3125C541.0112359550562,160.3125,541.0112359550562,161.15625,539.3258426966293,161.15625C537.6404494382023,161.15625,537.6404494382023,161.15625,535.9550561797753,161.15625C534.2696629213483,161.15625,534.2696629213483,162,532.5842696629213,162C530.8988764044943,162,530.8988764044943,162.84375,529.2134831460675,162.84375C527.5280898876405,162.84375,527.5280898876405,163.6875,525.8426966292135,163.6875C524.1573033707865,163.6875,524.1573033707865,164.53125,522.4719101123595,164.53125C520.7865168539327,164.53125,520.7865168539327,165.375,519.1011235955057,165.375C517.4157303370787,165.375,517.4157303370787,162.84375,515.7303370786517,162.84375C514.0449438202247,162.84375,514.0449438202247,164.53125,512.3595505617977,164.53125C510.67415730337075,164.53125,510.67415730337075,163.6875,508.9887640449438,163.6875C507.30337078651684,163.6875,507.30337078651684,164.53125,505.61797752808985,164.53125C503.9325842696629,164.53125,503.9325842696629,165.375,502.247191011236,165.375C500.561797752809,165.375,500.561797752809,165.375,498.87640449438203,165.375C497.1910112359551,165.375,497.1910112359551,163.6875,495.5056179775281,163.6875C493.82022471910113,163.6875,493.82022471910113,159.46875,492.13483146067415,159.46875C490.44943820224717,159.46875,490.44943820224717,162.84375,488.76404494382024,162.84375C487.07865168539325,162.84375,487.07865168539325,162,485.39325842696627,162C483.70786516853934,162,483.70786516853934,160.3125,482.02247191011236,160.3125C480.3370786516854,160.3125,480.3370786516854,159.46875,478.6516853932584,159.46875C476.96629213483146,159.46875,476.96629213483146,159.46875,475.28089887640454,159.46875C473.59550561797755,159.46875,473.59550561797755,159.46875,471.91011235955057,159.46875C470.2247191011236,159.46875,470.2247191011236,159.46875,468.53932584269666,159.46875C466.85393258426967,159.46875,466.85393258426967,158.625,465.1685393258427,158.625C463.48314606741576,158.625,463.48314606741576,159.46875,461.7977528089888,159.46875C460.1123595505618,159.46875,460.1123595505618,158.625,458.4269662921348,158.625C456.7415730337078,158.625,456.7415730337078,161.15625,455.0561797752809,161.15625C453.3707865168539,161.15625,453.3707865168539,162,451.6853932584269,162C450,162,450,156.9375,448.3146067415731,156.9375C446.6292134831461,156.9375,446.6292134831461,162,444.9438202247191,162C443.2584269662922,162,443.2584269662922,158.625,441.5730337078652,158.625C439.8876404494382,158.625,439.8876404494382,163.6875,438.2022471910112,163.6875C436.51685393258424,163.6875,436.51685393258424,162.84375,434.8314606741573,162.84375C433.14606741573033,162.84375,433.14606741573033,163.6875,431.46067415730334,163.6875C429.7752808988764,163.6875,429.7752808988764,167.90625,428.08988764044943,167.90625C426.40449438202245,167.90625,426.40449438202245,167.0625,424.71910112359546,167.0625C423.03370786516854,167.0625,423.03370786516854,172.125,421.3483146067416,172.125C419.6629213483146,172.125,419.6629213483146,162.84375,417.97752808988764,162.84375C416.29213483146066,162.84375,416.29213483146066,167.90625,414.60674157303373,167.90625C412.92134831460675,167.90625,412.92134831460675,168.75,411.23595505617976,168.75C409.55056179775283,168.75,409.55056179775283,172.96875,407.86516853932585,172.96875C406.17977528089887,172.96875,406.17977528089887,167.90625,404.4943820224719,167.90625C402.8089887640449,167.90625,402.8089887640449,169.59375,401.12359550561797,169.59375C399.438202247191,169.59375,399.438202247191,165.375,397.752808988764,165.375C396.0674157303371,165.375,396.0674157303371,173.8125,394.38202247191015,173.8125C392.69662921348316,173.8125,392.69662921348316,172.125,391.0112359550562,172.125C389.32584269662925,172.125,389.32584269662925,174.65625,387.64044943820227,174.65625C385.9550561797753,174.65625,385.9550561797753,177.1875,384.2696629213483,177.1875C382.5842696629213,177.1875,382.5842696629213,178.875,380.8988764044944,178.875C379.2134831460674,178.875,379.2134831460674,178.03125,377.5280898876404,178.03125C375.8426966292135,178.03125,375.8426966292135,180.5625,374.1573033707865,180.5625C372.4719101123595,180.5625,372.4719101123595,179.71875,370.78651685393254,179.71875C369.1011235955056,179.71875,369.1011235955056,182.25,367.4157303370787,182.25C365.7303370786517,182.25,365.7303370786517,178.03125,364.0449438202247,178.03125C362.35955056179773,178.03125,362.35955056179773,183.09375,360.6741573033708,183.09375C358.9887640449438,183.09375,358.9887640449438,186.46875,357.30337078651684,186.46875C355.6179775280899,186.46875,355.6179775280899,178.03125,353.9325842696629,178.03125C352.24719101123594,178.03125,352.24719101123594,175.5,350.56179775280896,175.5C348.876404494382,175.5,348.876404494382,178.03125,347.19101123595505,178.03125C345.50561797752806,178.03125,345.50561797752806,176.34375,343.8202247191011,176.34375C342.13483146067415,176.34375,342.13483146067415,176.34375,340.4494382022472,176.34375C338.7640449438203,176.34375,338.7640449438203,173.8125,337.0786516853933,173.8125C335.3932584269663,173.8125,335.3932584269663,175.5,333.70786516853934,175.5C332.02247191011236,175.5,332.02247191011236,177.1875,330.3370786516854,177.1875C328.6516853932584,177.1875,328.6516853932584,178.03125,326.96629213483146,178.03125C325.2808988764045,178.03125,325.2808988764045,174.65625,323.5955056179775,174.65625C321.91011235955057,174.65625,321.91011235955057,172.125,320.2247191011236,172.125C318.5393258426966,172.125,318.5393258426966,177.1875,316.8539325842696,177.1875C315.1685393258427,177.1875,315.1685393258427,179.71875,313.48314606741576,179.71875C311.7977528089888,179.71875,311.7977528089888,186.46875,310.11235955056185,186.46875C308.42696629213486,186.46875,308.42696629213486,190.6875,306.7415730337079,190.6875C305.05617977528095,190.6875,305.05617977528095,187.3125,303.37078651685397,187.3125C301.685393258427,187.3125,301.685393258427,188.15625,300,188.15625C298.314606741573,188.15625,298.314606741573,198.28125,296.62921348314603,198.28125C294.94382022471905,198.28125,294.94382022471905,197.4375,293.2584269662921,197.4375C291.5730337078652,197.4375,291.5730337078652,209.25,289.8876404494382,209.25C288.2022471910112,209.25,288.2022471910112,202.5,286.5168539325843,202.5C284.8314606741573,202.5,284.8314606741573,205.03125,283.14606741573033,205.03125C281.46067415730334,205.03125,281.46067415730334,216,279.77528089887636,216C278.08988764044943,216,278.08988764044943,213.46875,276.4044943820225,213.46875C274.7191011235955,213.46875,274.7191011235955,205.03125,273.03370786516854,205.03125C271.3483146067416,205.03125,271.3483146067416,218.53125,269.6629213483146,218.53125C267.97752808988764,218.53125,267.97752808988764,254.8125,266.29213483146066,254.8125C264.6067415730337,254.8125,264.6067415730337,201.65625,262.92134831460675,201.65625C261.2359550561798,201.65625,261.2359550561798,210.09375,259.55056179775283,210.09375C257.86516853932585,210.09375,257.86516853932585,240.46875,256.17977528089887,240.46875C254.49438202247188,240.46875,254.49438202247188,192.375,252.80898876404493,192.375C251.12359550561797,192.375,251.12359550561797,196.59375,249.43820224719101,196.59375C247.75280898876406,196.59375,247.75280898876406,185.625,246.06741573033707,185.625C244.3820224719101,185.625,244.3820224719101,166.21875,242.69662921348313,166.21875C241.01123595505618,166.21875,241.01123595505618,158.625,239.3258426966292,158.625C237.64044943820224,158.625,237.64044943820224,154.40625,235.95505617977528,154.40625C234.2696629213483,154.40625,234.2696629213483,152.71875,232.58426966292134,152.71875C230.8988764044944,152.71875,230.8988764044944,151.875,229.2134831460674,151.875C227.52808988764042,151.875,227.52808988764042,150.1875,225.84269662921346,150.1875C224.1573033707865,150.1875,224.1573033707865,149.34375,222.47191011235955,149.34375C220.7865168539326,149.34375,220.7865168539326,149.34375,219.1011235955056,149.34375C217.41573033707863,149.34375,217.41573033707863,150.1875,215.73033707865167,150.1875C214.04494382022472,150.1875,214.04494382022472,150.1875,212.35955056179773,150.1875C210.67415730337078,150.1875,210.67415730337078,147.65625,208.98876404494382,147.65625C207.30337078651684,147.65625,207.30337078651684,147.65625,205.61797752808988,147.65625C203.93258426966293,147.65625,203.93258426966293,147.65625,202.24719101123594,147.65625C200.56179775280896,147.65625,200.56179775280896,146.8125,198.876404494382,146.8125C197.19101123595505,146.8125,197.19101123595505,146.8125,195.5056179775281,146.8125C193.82022471910113,146.8125,193.82022471910113,145.125,192.13483146067415,145.125C190.44943820224717,145.125,190.44943820224717,146.8125,188.7640449438202,146.8125C187.07865168539325,146.8125,187.07865168539325,145.125,185.39325842696627,145.125C183.7078651685393,145.125,183.7078651685393,143.4375,182.02247191011236,143.4375C180.33707865168537,143.4375,180.33707865168537,141.75,178.65168539325842,141.75C176.96629213483146,141.75,176.96629213483146,143.4375,175.28089887640448,143.4375C173.5955056179775,143.4375,173.5955056179775,143.4375,171.91011235955054,143.4375C170.22471910112358,143.4375,170.22471910112358,143.4375,168.53932584269666,143.4375C166.85393258426967,143.4375,166.85393258426967,144.28125,165.1685393258427,144.28125C163.4831460674157,144.28125,163.4831460674157,143.4375,161.79775280898875,143.4375C160.1123595505618,143.4375,160.1123595505618,143.4375,158.4269662921348,143.4375C156.74157303370788,143.4375,156.74157303370788,144.28125,155.05617977528092,144.28125C153.37078651685397,144.28125,153.37078651685397,143.4375,151.68539325842698,143.4375C150,143.4375,150,143.4375,148.31460674157302,143.4375C146.62921348314606,143.4375,146.62921348314606,143.4375,144.9438202247191,143.4375C143.25842696629212,143.4375,143.25842696629212,142.59375,141.57303370786516,142.59375C139.8876404494382,142.59375,139.8876404494382,143.4375,138.20224719101125,143.4375C136.5168539325843,143.4375,136.5168539325843,143.4375,134.8314606741573,143.4375C133.14606741573033,143.4375,133.14606741573033,141.75,131.46067415730337,141.75C129.77528089887642,141.75,129.77528089887642,141.75,128.08988764044943,141.75C126.40449438202248,141.75,126.40449438202248,141.75,124.71910112359551,141.75C123.03370786516854,141.75,123.03370786516854,142.59375,121.34831460674157,142.59375C119.6629213483146,142.59375,119.6629213483146,143.4375,117.97752808988764,143.4375C116.29213483146067,143.4375,116.29213483146067,141.75,114.6067415730337,141.75C112.92134831460675,141.75,112.92134831460675,142.59375,111.23595505617978,142.59375C109.5505617977528,142.59375,109.5505617977528,143.4375,107.86516853932584,143.4375C106.17977528089887,143.4375,106.17977528089887,143.4375,104.49438202247191,143.4375C102.80898876404494,143.4375,102.80898876404494,143.4375,101.12359550561797,143.4375C99.43820224719101,143.4375,99.43820224719101,143.4375,97.75280898876404,143.4375C96.06741573033707,143.4375,96.06741573033707,143.4375,94.3820224719101,143.4375C92.69662921348313,143.4375,92.69662921348313,143.4375,91.01123595505618,143.4375C89.32584269662921,143.4375,89.32584269662921,142.59375,87.64044943820224,142.59375C85.95505617977528,142.59375,85.95505617977528,143.4375,84.26966292134833,143.4375C82.58426966292134,143.4375,82.58426966292134,143.4375,80.89887640449437,143.4375C79.21348314606742,143.4375,79.21348314606742,144.28125,77.52808988764046,144.28125C75.84269662921349,144.28125,75.84269662921349,145.96875,74.15730337078651,145.96875C72.47191011235955,145.96875,72.47191011235955,145.125,70.78651685393258,145.125C69.10112359550561,145.125,69.10112359550561,144.28125,67.41573033707866,144.28125C65.73033707865169,144.28125,65.73033707865169,143.4375,64.04494382022472,143.4375C62.35955056179775,143.4375,62.35955056179775,145.125,60.674157303370784,145.125C58.98876404494382,145.125,58.98876404494382,144.28125,57.30337078651685,144.28125C55.61797752808988,144.28125,55.61797752808988,145.125,53.93258426966292,145.125C52.247191011235955,145.125,52.247191011235955,145.125,50.561797752808985,145.125C48.876404494382015,145.125,48.876404494382015,144.28125,47.19101123595505,144.28125C45.50561797752809,144.28125,45.50561797752809,145.125,43.82022471910112,145.125C42.13483146067415,145.125,42.13483146067415,143.4375,40.44943820224719,143.4375C38.764044943820224,143.4375,38.764044943820224,144.28125,37.078651685393254,144.28125C35.39325842696629,144.28125,35.39325842696629,145.125,33.70786516853933,145.125C32.02247191011236,145.125,32.02247191011236,144.28125,30.337078651685392,144.28125C28.651685393258425,144.28125,28.651685393258425,144.28125,26.96629213483146,144.28125C25.280898876404493,144.28125,25.280898876404493,144.28125,23.595505617977526,144.28125C21.91011235955056,144.28125,21.91011235955056,143.4375,20.224719101123593,143.4375C18.539325842696627,143.4375,18.539325842696627,143.4375,16.853932584269664,143.4375C15.168539325842698,143.4375,15.168539325842698,143.4375,13.48314606741573,143.4375C11.797752808988763,143.4375,11.797752808988763,145.125,10.112359550561797,145.125C8.42696629213483,145.125,8.42696629213483,143.4375,6.741573033707865,143.4375C5.056179775280898,143.4375,5.056179775280898,144.28125,3.3707865168539324,144.28125C1.6853932584269662,144.28125,1.6853932584269662,144.28125,0,144.28125Z"><title>Javier Milei</title></path><path fill="#4a90e2" d="M0,125.71874999999999C1.6853932584269662,125.71874999999999,1.6853932584269662,125.71874999999999,3.3707865168539324,125.71874999999999C5.056179775280898,125.71874999999999,5.056179775280898,126.5625,6.741573033707865,126.5625C8.42696629213483,126.5625,8.42696629213483,124.875,10.112359550561797,124.875C11.797752808988763,124.875,11.797752808988763,126.5625,13.48314606741573,126.5625C15.168539325842698,126.5625,15.168539325842698,126.5625,16.853932584269664,126.5625C18.539325842696627,126.5625,18.539325842696627,126.5625,20.224719101123593,126.5625C21.91011235955056,126.5625,21.91011235955056,125.71874999999999,23.595505617977526,125.71874999999999C25.280898876404493,125.71874999999999,25.280898876404493,125.71874999999999,26.96629213483146,125.71874999999999C28.651685393258425,125.71874999999999,28.651685393258425,125.71874999999999,30.337078651685392,125.71874999999999C32.02247191011236,125.71874999999999,32.02247191011236,124.875,33.70786516853933,124.875C35.39325842696629,124.875,35.39325842696629,125.71874999999999,37.078651685393254,125.71874999999999C38.764044943820224,125.71874999999999,38.764044943820224,126.5625,40.44943820224719,126.5625C42.13483146067415,126.5625,42.13483146067415,124.875,43.82022471910112,124.875C45.50561797752809,124.875,45.50561797752809,125.71874999999999,47.19101123595505,125.71874999999999C48.876404494382015,125.71874999999999,48.876404494382015,124.875,50.561797752808985,124.875C52.247191011235955,124.875,52.247191011235955,124.875,53.93258426966292,124.875C55.61797752808988,124.875,55.61797752808988,125.71874999999999,57.30337078651685,125.71874999999999C58.98876404494382,125.71874999999999,58.98876404494382,124.875,60.674157303370784,124.875C62.35955056179775,124.875,62.35955056179775,126.5625,64.04494382022472,126.5625C65.73033707865169,126.5625,65.73033707865169,125.71874999999999,67.41573033707866,125.71874999999999C69.10112359550561,125.71874999999999,69.10112359550561,124.875,70.78651685393258,124.875C72.47191011235955,124.875,72.47191011235955,124.03125,74.15730337078651,124.03125C75.84269662921349,124.03125,75.84269662921349,125.71874999999999,77.52808988764046,125.71874999999999C79.21348314606742,125.71874999999999,79.21348314606742,126.5625,80.89887640449437,126.5625C82.58426966292134,126.5625,82.58426966292134,126.5625,84.26966292134833,126.5625C85.95505617977528,126.5625,85.95505617977528,127.40625000000001,87.64044943820224,127.40625000000001C89.32584269662921,127.40625000000001,89.32584269662921,126.5625,91.01123595505618,126.5625C92.69662921348313,126.5625,92.69662921348313,126.5625,94.3820224719101,126.5625C96.06741573033707,126.5625,96.06741573033707,126.5625,97.75280898876404,126.5625C99.43820224719101,126.5625,99.43820224719101,126.5625,101.12359550561797,126.5625C102.80898876404494,126.5625,102.80898876404494,126.5625,104.49438202247191,126.5625C106.17977528089887,126.5625,106.17977528089887,126.5625,107.86516853932584,126.5625C109.5505617977528,126.5625,109.5505617977528,127.40625000000001,111.23595505617978,127.40625000000001C112.92134831460675,127.40625000000001,112.92134831460675,128.25,114.6067415730337,128.25C116.29213483146067,128.25,116.29213483146067,126.5625,117.97752808988764,126.5625C119.6629213483146,126.5625,119.6629213483146,127.40625000000001,121.34831460674157,127.40625000000001C123.03370786516854,127.40625000000001,123.03370786516854,128.25,124.71910112359551,128.25C126.40449438202248,128.25,126.40449438202248,128.25,128.08988764044943,128.25C129.77528089887642,128.25,129.77528089887642,128.25,131.46067415730337,128.25C133.14606741573033,128.25,133.14606741573033,126.5625,134.8314606741573,126.5625C136.5168539325843,126.5625,136.5168539325843,126.5625,138.20224719101125,126.5625C139.8876404494382,126.5625,139.8876404494382,127.40625000000001,141.57303370786516,127.40625000000001C143.25842696629212,127.40625000000001,143.25842696629212,126.5625,144.9438202247191,126.5625C146.62921348314606,126.5625,146.62921348314606,126.5625,148.31460674157302,126.5625C150,126.5625,150,126.5625,151.68539325842698,126.5625C153.37078651685397,126.5625,153.37078651685397,125.71874999999999,155.05617977528092,125.71874999999999C156.74157303370788,125.71874999999999,156.74157303370788,126.5625,158.4269662921348,126.5625C160.1123595505618,126.5625,160.1123595505618,126.5625,161.79775280898875,126.5625C163.4831460674157,126.5625,163.4831460674157,125.71874999999999,165.1685393258427,125.71874999999999C166.85393258426967,125.71874999999999,166.85393258426967,126.5625,168.53932584269666,126.5625C170.22471910112358,126.5625,170.22471910112358,126.5625,171.91011235955054,126.5625C173.5955056179775,126.5625,173.5955056179775,126.5625,175.28089887640448,126.5625C176.96629213483146,126.5625,176.96629213483146,128.25,178.65168539325842,128.25C180.33707865168537,128.25,180.33707865168537,126.5625,182.02247191011236,126.5625C183.7078651685393,126.5625,183.7078651685393,124.875,185.39325842696627,124.875C187.07865168539325,124.875,187.07865168539325,123.18750000000001,188.7640449438202,123.18750000000001C190.44943820224717,123.18750000000001,190.44943820224717,124.875,192.13483146067415,124.875C193.82022471910113,124.875,193.82022471910113,123.18750000000001,195.5056179775281,123.18750000000001C197.19101123595505,123.18750000000001,197.19101123595505,123.18750000000001,198.876404494382,123.18750000000001C200.56179775280896,123.18750000000001,200.56179775280896,122.34375,202.24719101123594,122.34375C203.93258426966293,122.34375,203.93258426966293,122.34375,205.61797752808988,122.34375C207.30337078651684,122.34375,207.30337078651684,122.34375,208.98876404494382,122.34375C210.67415730337078,122.34375,210.67415730337078,119.8125,212.35955056179773,119.8125C214.04494382022472,119.8125,214.04494382022472,119.8125,215.73033707865167,119.8125C217.41573033707863,119.8125,217.41573033707863,120.65625,219.1011235955056,120.65625C220.7865168539326,120.65625,220.7865168539326,120.65625,222.47191011235955,120.65625C224.1573033707865,120.65625,224.1573033707865,119.8125,225.84269662921346,119.8125C227.52808988764042,119.8125,227.52808988764042,118.125,229.2134831460674,118.125C230.8988764044944,118.125,230.8988764044944,117.28124999999999,232.58426966292134,117.28124999999999C234.2696629213483,117.28124999999999,234.2696629213483,115.59375,235.95505617977528,115.59375C237.64044943820224,115.59375,237.64044943820224,111.375,239.3258426966292,111.375C241.01123595505618,111.375,241.01123595505618,103.78125,242.69662921348313,103.78125C244.3820224719101,103.78125,244.3820224719101,84.375,246.06741573033707,84.375C247.75280898876406,84.375,247.75280898876406,73.40625,249.43820224719101,73.40625C251.12359550561797,73.40625,251.12359550561797,77.625,252.80898876404493,77.625C254.49438202247188,77.625,254.49438202247188,29.53125,256.17977528089887,29.53125C257.86516853932585,29.53125,257.86516853932585,59.906250000000014,259.55056179775283,59.906250000000014C261.2359550561798,59.906250000000014,261.2359550561798,68.34375000000001,262.92134831460675,68.34375000000001C264.6067415730337,68.34375000000001,264.6067415730337,15.187500000000005,266.29213483146066,15.187500000000005C267.97752808988764,15.187500000000005,267.97752808988764,51.468750000000014,269.6629213483146,51.468750000000014C271.3483146067416,51.468750000000014,271.3483146067416,64.96875,273.03370786516854,64.96875C274.7191011235955,64.96875,274.7191011235955,56.53124999999999,276.4044943820225,56.53124999999999C278.08988764044943,56.53124999999999,278.08988764044943,53.999999999999986,279.77528089887636,53.999999999999986C281.46067415730334,53.999999999999986,281.46067415730334,64.96875,283.14606741573033,64.96875C284.8314606741573,64.96875,284.8314606741573,67.5,286.5168539325843,67.5C288.2022471910112,67.5,288.2022471910112,60.74999999999999,289.8876404494382,60.74999999999999C291.5730337078652,60.74999999999999,291.5730337078652,72.56250000000001,293.2584269662921,72.56250000000001C294.94382022471905,72.56250000000001,294.94382022471905,71.71875,296.62921348314603,71.71875C298.314606741573,71.71875,298.314606741573,81.84375,300,81.84375C301.685393258427,81.84375,301.685393258427,82.6875,303.37078651685397,82.6875C305.05617977528095,82.6875,305.05617977528095,79.31249999999999,306.7415730337079,79.31249999999999C308.42696629213486,79.31249999999999,308.42696629213486,83.53124999999999,310.11235955056185,83.53124999999999C311.7977528089888,83.53124999999999,311.7977528089888,90.28125,313.48314606741576,90.28125C315.1685393258427,90.28125,315.1685393258427,92.8125,316.8539325842696,92.8125C318.5393258426966,92.8125,318.5393258426966,97.87500000000001,320.2247191011236,97.87500000000001C321.91011235955057,97.87500000000001,321.91011235955057,95.34375,323.5955056179775,95.34375C325.2808988764045,95.34375,325.2808988764045,91.96874999999999,326.96629213483146,91.96874999999999C328.6516853932584,91.96874999999999,328.6516853932584,92.8125,330.3370786516854,92.8125C332.02247191011236,92.8125,332.02247191011236,94.5,333.70786516853934,94.5C335.3932584269663,94.5,335.3932584269663,96.18749999999999,337.0786516853933,96.18749999999999C338.7640449438203,96.18749999999999,338.7640449438203,93.65625000000001,340.4494382022472,93.65625000000001C342.13483146067415,93.65625000000001,342.13483146067415,93.65625000000001,343.8202247191011,93.65625000000001C345.50561797752806,93.65625000000001,345.50561797752806,91.96874999999999,347.19101123595505,91.96874999999999C348.876404494382,91.96874999999999,348.876404494382,94.5,350.56179775280896,94.5C352.24719101123594,94.5,352.24719101123594,91.96874999999999,353.9325842696629,91.96874999999999C355.6179775280899,91.96874999999999,355.6179775280899,83.53124999999999,357.30337078651684,83.53124999999999C358.9887640449438,83.53124999999999,358.9887640449438,86.90625,360.6741573033708,86.90625C362.35955056179773,86.90625,362.35955056179773,91.96874999999999,364.0449438202247,91.96874999999999C365.7303370786517,91.96874999999999,365.7303370786517,87.74999999999999,367.4157303370787,87.74999999999999C369.1011235955056,87.74999999999999,369.1011235955056,90.28125,370.78651685393254,90.28125C372.4719101123595,90.28125,372.4719101123595,89.43750000000001,374.1573033707865,89.43750000000001C375.8426966292135,89.43750000000001,375.8426966292135,91.96874999999999,377.5280898876404,91.96874999999999C379.2134831460674,91.96874999999999,379.2134831460674,91.125,380.8988764044944,91.125C382.5842696629213,91.125,382.5842696629213,92.8125,384.2696629213483,92.8125C385.9550561797753,92.8125,385.9550561797753,95.34375,387.64044943820227,95.34375C389.32584269662925,95.34375,389.32584269662925,97.87500000000001,391.0112359550562,97.87500000000001C392.69662921348316,97.87500000000001,392.69662921348316,96.18749999999999,394.38202247191015,96.18749999999999C396.0674157303371,96.18749999999999,396.0674157303371,104.62499999999999,397.752808988764,104.62499999999999C399.438202247191,104.62499999999999,399.438202247191,100.40624999999999,401.12359550561797,100.40624999999999C402.8089887640449,100.40624999999999,402.8089887640449,102.09375000000001,404.4943820224719,102.09375000000001C406.17977528089887,102.09375000000001,406.17977528089887,97.03125,407.86516853932585,97.03125C409.55056179775283,97.03125,409.55056179775283,101.25,411.23595505617976,101.25C412.92134831460675,101.25,412.92134831460675,102.09375000000001,414.60674157303373,102.09375000000001C416.29213483146066,102.09375000000001,416.29213483146066,107.15625,417.97752808988764,107.15625C419.6629213483146,107.15625,419.6629213483146,97.87500000000001,421.3483146067416,97.87500000000001C423.03370786516854,97.87500000000001,423.03370786516854,102.9375,424.71910112359546,102.9375C426.40449438202245,102.9375,426.40449438202245,102.09375000000001,428.08988764044943,102.09375000000001C429.7752808988764,102.09375000000001,429.7752808988764,106.31250000000001,431.46067415730334,106.31250000000001C433.14606741573033,106.31250000000001,433.14606741573033,107.15625,434.8314606741573,107.15625C436.51685393258424,107.15625,436.51685393258424,106.31250000000001,438.2022471910112,106.31250000000001C439.8876404494382,106.31250000000001,439.8876404494382,111.375,441.5730337078652,111.375C443.2584269662922,111.375,443.2584269662922,108,444.9438202247191,108C446.6292134831461,108,446.6292134831461,113.06249999999999,448.3146067415731,113.06249999999999C450,113.06249999999999,450,108,451.6853932584269,108C453.3707865168539,108,453.3707865168539,108.84374999999999,455.0561797752809,108.84374999999999C456.7415730337078,108.84374999999999,456.7415730337078,111.375,458.4269662921348,111.375C460.1123595505618,111.375,460.1123595505618,110.53125000000001,461.7977528089888,110.53125000000001C463.48314606741576,110.53125000000001,463.48314606741576,111.375,465.1685393258427,111.375C466.85393258426967,111.375,466.85393258426967,110.53125000000001,468.53932584269666,110.53125000000001C470.2247191011236,110.53125000000001,470.2247191011236,110.53125000000001,471.91011235955057,110.53125000000001C473.59550561797755,110.53125000000001,473.59550561797755,110.53125000000001,475.28089887640454,110.53125000000001C476.96629213483146,110.53125000000001,476.96629213483146,110.53125000000001,478.6516853932584,110.53125000000001C480.3370786516854,110.53125000000001,480.3370786516854,109.6875,482.02247191011236,109.6875C483.70786516853934,109.6875,483.70786516853934,108,485.39325842696627,108C487.07865168539325,108,487.07865168539325,107.15625,488.76404494382024,107.15625C490.44943820224717,107.15625,490.44943820224717,110.53125000000001,492.13483146067415,110.53125000000001C493.82022471910113,110.53125000000001,493.82022471910113,106.31250000000001,495.5056179775281,106.31250000000001C497.1910112359551,106.31250000000001,497.1910112359551,104.62499999999999,498.87640449438203,104.62499999999999C500.561797752809,104.62499999999999,500.561797752809,104.62499999999999,502.247191011236,104.62499999999999C503.9325842696629,104.62499999999999,503.9325842696629,105.46875,505.61797752808985,105.46875C507.30337078651684,105.46875,507.30337078651684,106.31250000000001,508.9887640449438,106.31250000000001C510.67415730337075,106.31250000000001,510.67415730337075,105.46875,512.3595505617977,105.46875C514.0449438202247,105.46875,514.0449438202247,107.15625,515.7303370786517,107.15625C517.4157303370787,107.15625,517.4157303370787,104.62499999999999,519.1011235955057,104.62499999999999C520.7865168539327,104.62499999999999,520.7865168539327,105.46875,522.4719101123595,105.46875C524.1573033707865,105.46875,524.1573033707865,106.31250000000001,525.8426966292135,106.31250000000001C527.5280898876405,106.31250000000001,527.5280898876405,107.15625,529.2134831460675,107.15625C530.8988764044943,107.15625,530.8988764044943,108,532.5842696629213,108C534.2696629213483,108,534.2696629213483,108.84374999999999,535.9550561797753,108.84374999999999C537.6404494382023,108.84374999999999,537.6404494382023,108.84374999999999,539.3258426966293,108.84374999999999C541.0112359550562,108.84374999999999,541.0112359550562,109.6875,542.6966292134831,109.6875C544.3820224719101,109.6875,544.3820224719101,109.6875,546.0674157303371,109.6875C547.7528089887641,109.6875,547.7528089887641,108.84374999999999,549.438202247191,108.84374999999999C551.123595505618,108.84374999999999,551.123595505618,110.53125000000001,552.808988764045,110.53125000000001C554.4943820224719,110.53125000000001,554.4943820224719,108.84374999999999,556.1797752808989,108.84374999999999C557.8651685393259,108.84374999999999,557.8651685393259,108.84374999999999,559.5505617977527,108.84374999999999C561.2359550561797,108.84374999999999,561.2359550561797,107.15625,562.9213483146067,107.15625C564.6067415730337,107.15625,564.6067415730337,109.6875,566.2921348314607,109.6875C567.9775280898876,109.6875,567.9775280898876,108.84374999999999,569.6629213483146,108.84374999999999C571.3483146067416,108.84374999999999,571.3483146067416,108.84374999999999,573.0337078651686,108.84374999999999C574.7191011235955,108.84374999999999,574.7191011235955,110.53125000000001,576.4044943820224,110.53125000000001C578.0898876404494,110.53125000000001,578.0898876404494,109.6875,579.7752808988764,109.6875C581.4606741573034,109.6875,581.4606741573034,108.84374999999999,583.1460674157304,108.84374999999999C584.8314606741574,108.84374999999999,584.8314606741574,110.53125000000001,586.5168539325842,110.53125000000001C588.2022471910112,110.53125000000001,588.2022471910112,110.53125000000001,589.8876404494382,110.53125000000001C591.5730337078651,110.53125000000001,591.5730337078651,110.53125000000001,593.2584269662921,110.53125000000001C594.943820224719,110.53125000000001,594.943820224719,111.375,596.629213483146,111.375C598.314606741573,111.375,598.314606741573,111.375,600,111.375L600,124.875C598.314606741573,124.875,598.314606741573,124.875,596.629213483146,124.875C594.943820224719,124.875,594.943820224719,124.03125,593.2584269662921,124.03125C591.5730337078651,124.03125,591.5730337078651,124.03125,589.8876404494382,124.03125C588.2022471910112,124.03125,588.2022471910112,125.71874999999999,586.5168539325842,125.71874999999999C584.8314606741574,125.71874999999999,584.8314606741574,125.71874999999999,583.1460674157304,125.71874999999999C581.4606741573034,125.71874999999999,581.4606741573034,124.875,579.7752808988764,124.875C578.0898876404494,124.875,578.0898876404494,125.71874999999999,576.4044943820224,125.71874999999999C574.7191011235955,125.71874999999999,574.7191011235955,124.03125,573.0337078651686,124.03125C571.3483146067416,124.03125,571.3483146067416,125.71874999999999,569.6629213483146,125.71874999999999C567.9775280898876,125.71874999999999,567.9775280898876,124.875,566.2921348314607,124.875C564.6067415730337,124.875,564.6067415730337,122.34375,562.9213483146067,122.34375C561.2359550561797,122.34375,561.2359550561797,124.03125,559.5505617977527,124.03125C557.8651685393259,124.03125,557.8651685393259,124.03125,556.1797752808989,124.03125C554.4943820224719,124.03125,554.4943820224719,125.71874999999999,552.808988764045,125.71874999999999C551.123595505618,125.71874999999999,551.123595505618,125.71874999999999,549.438202247191,125.71874999999999C547.7528089887641,125.71874999999999,547.7528089887641,126.5625,546.0674157303371,126.5625C544.3820224719101,126.5625,544.3820224719101,124.875,542.6966292134831,124.875C541.0112359550562,124.875,541.0112359550562,125.71874999999999,539.3258426966293,125.71874999999999C537.6404494382023,125.71874999999999,537.6404494382023,125.71874999999999,535.9550561797753,125.71874999999999C534.2696629213483,125.71874999999999,534.2696629213483,124.875,532.5842696629213,124.875C530.8988764044943,124.875,530.8988764044943,125.71874999999999,529.2134831460675,125.71874999999999C527.5280898876405,125.71874999999999,527.5280898876405,123.18750000000001,525.8426966292135,123.18750000000001C524.1573033707865,123.18750000000001,524.1573033707865,124.03125,522.4719101123595,124.03125C520.7865168539327,124.03125,520.7865168539327,123.18750000000001,519.1011235955057,123.18750000000001C517.4157303370787,123.18750000000001,517.4157303370787,125.71874999999999,515.7303370786517,125.71874999999999C514.0449438202247,125.71874999999999,514.0449438202247,124.03125,512.3595505617977,124.03125C510.67415730337075,124.03125,510.67415730337075,124.875,508.9887640449438,124.875C507.30337078651684,124.875,507.30337078651684,124.03125,505.61797752808985,124.03125C503.9325842696629,124.03125,503.9325842696629,124.875,502.247191011236,124.875C500.561797752809,124.875,500.561797752809,124.875,498.87640449438203,124.875C497.1910112359551,124.875,497.1910112359551,124.875,495.5056179775281,124.875C493.82022471910113,124.875,493.82022471910113,127.40625000000001,492.13483146067415,127.40625000000001C490.44943820224717,127.40625000000001,490.44943820224717,125.71874999999999,488.76404494382024,125.71874999999999C487.07865168539325,125.71874999999999,487.07865168539325,126.5625,485.39325842696627,126.5625C483.70786516853934,126.5625,483.70786516853934,126.5625,482.02247191011236,126.5625C480.3370786516854,126.5625,480.3370786516854,127.40625000000001,478.6516853932584,127.40625000000001C476.96629213483146,127.40625000000001,476.96629213483146,125.71874999999999,475.28089887640454,125.71874999999999C473.59550561797755,125.71874999999999,473.59550561797755,129.09375,471.91011235955057,129.09375C470.2247191011236,129.09375,470.2247191011236,129.09375,468.53932584269666,129.09375C466.85393258426967,129.09375,466.85393258426967,128.25,465.1685393258427,128.25C463.48314606741576,128.25,463.48314606741576,127.40625000000001,461.7977528089888,127.40625000000001C460.1123595505618,127.40625000000001,460.1123595505618,126.5625,458.4269662921348,126.5625C456.7415730337078,126.5625,456.7415730337078,125.71874999999999,455.0561797752809,125.71874999999999C453.3707865168539,125.71874999999999,453.3707865168539,128.25,451.6853932584269,128.25C450,128.25,450,128.25,448.3146067415731,128.25C446.6292134831461,128.25,446.6292134831461,126.5625,444.9438202247191,126.5625C443.2584269662922,126.5625,443.2584269662922,124.875,441.5730337078652,124.875C439.8876404494382,124.875,439.8876404494382,124.875,438.2022471910112,124.875C436.51685393258424,124.875,436.51685393258424,122.34375,434.8314606741573,122.34375C433.14606741573033,122.34375,433.14606741573033,123.18750000000001,431.46067415730334,123.18750000000001C429.7752808988764,123.18750000000001,429.7752808988764,125.71874999999999,428.08988764044943,125.71874999999999C426.40449438202245,125.71874999999999,426.40449438202245,123.18750000000001,424.71910112359546,123.18750000000001C423.03370786516854,123.18750000000001,423.03370786516854,121.49999999999999,421.3483146067416,121.49999999999999C419.6629213483146,121.49999999999999,419.6629213483146,122.34375,417.97752808988764,122.34375C416.29213483146066,122.34375,416.29213483146066,122.34375,414.60674157303373,122.34375C412.92134831460675,122.34375,412.92134831460675,124.875,411.23595505617976,124.875C409.55056179775283,124.875,409.55056179775283,117.28124999999999,407.86516853932585,117.28124999999999C406.17977528089887,117.28124999999999,406.17977528089887,122.34375,404.4943820224719,122.34375C402.8089887640449,122.34375,402.8089887640449,118.96875000000001,401.12359550561797,118.96875000000001C399.438202247191,118.96875000000001,399.438202247191,121.49999999999999,397.752808988764,121.49999999999999C396.0674157303371,121.49999999999999,396.0674157303371,116.4375,394.38202247191015,116.4375C392.69662921348316,116.4375,392.69662921348316,118.125,391.0112359550562,118.125C389.32584269662925,118.125,389.32584269662925,118.96875000000001,387.64044943820227,118.96875000000001C385.9550561797753,118.96875000000001,385.9550561797753,118.125,384.2696629213483,118.125C382.5842696629213,118.125,382.5842696629213,118.125,380.8988764044944,118.125C379.2134831460674,118.125,379.2134831460674,118.96875000000001,377.5280898876404,118.96875000000001C375.8426966292135,118.96875000000001,375.8426966292135,118.125,374.1573033707865,118.125C372.4719101123595,118.125,372.4719101123595,113.90625,370.78651685393254,113.90625C369.1011235955056,113.90625,369.1011235955056,114.75000000000001,367.4157303370787,114.75000000000001C365.7303370786517,114.75000000000001,365.7303370786517,118.96875000000001,364.0449438202247,118.96875000000001C362.35955056179773,118.96875000000001,362.35955056179773,113.90625,360.6741573033708,113.90625C358.9887640449438,113.90625,358.9887640449438,110.53125000000001,357.30337078651684,110.53125000000001C355.6179775280899,110.53125000000001,355.6179775280899,117.28124999999999,353.9325842696629,117.28124999999999C352.24719101123594,117.28124999999999,352.24719101123594,124.875,350.56179775280896,124.875C348.876404494382,124.875,348.876404494382,124.03125,347.19101123595505,124.03125C345.50561797752806,124.03125,345.50561797752806,125.71874999999999,343.8202247191011,125.71874999999999C342.13483146067415,125.71874999999999,342.13483146067415,125.71874999999999,340.4494382022472,125.71874999999999C338.7640449438203,125.71874999999999,338.7640449438203,129.9375,337.0786516853933,129.9375C335.3932584269663,129.9375,335.3932584269663,128.25,333.70786516853934,128.25C332.02247191011236,128.25,332.02247191011236,129.9375,330.3370786516854,129.9375C328.6516853932584,129.9375,328.6516853932584,129.09375,326.96629213483146,129.09375C325.2808988764045,129.09375,325.2808988764045,129.09375,323.5955056179775,129.09375C321.91011235955057,129.09375,321.91011235955057,129.9375,320.2247191011236,129.9375C318.5393258426966,129.9375,318.5393258426966,131.625,316.8539325842696,131.625C315.1685393258427,131.625,315.1685393258427,129.09375,313.48314606741576,129.09375C311.7977528089888,129.09375,311.7977528089888,129.09375,310.11235955056185,129.09375C308.42696629213486,129.09375,308.42696629213486,126.5625,306.7415730337079,126.5625C305.05617977528095,126.5625,305.05617977528095,126.5625,303.37078651685397,126.5625C301.685393258427,126.5625,301.685393258427,132.46875,300,132.46875C298.314606741573,132.46875,298.314606741573,132.46875,296.62921348314603,132.46875C294.94382022471905,132.46875,294.94382022471905,129.9375,293.2584269662921,129.9375C291.5730337078652,129.9375,291.5730337078652,124.875,289.8876404494382,124.875C288.2022471910112,124.875,288.2022471910112,133.3125,286.5168539325843,133.3125C284.8314606741573,133.3125,284.8314606741573,134.15625,283.14606741573033,134.15625C281.46067415730334,134.15625,281.46067415730334,116.4375,279.77528089887636,116.4375C278.08988764044943,116.4375,278.08988764044943,125.71874999999999,276.4044943820225,125.71874999999999C274.7191011235955,125.71874999999999,274.7191011235955,135.84375,273.03370786516854,135.84375C271.3483146067416,135.84375,271.3483146067416,137.53125,269.6629213483146,137.53125C267.97752808988764,137.53125,267.97752808988764,86.0625,266.29213483146066,86.0625C264.6067415730337,86.0625,264.6067415730337,130.78125,262.92134831460675,130.78125C261.2359550561798,130.78125,261.2359550561798,122.34375,259.55056179775283,122.34375C257.86516853932585,122.34375,257.86516853932585,124.03125,256.17977528089887,124.03125C254.49438202247188,124.03125,254.49438202247188,135,252.80898876404493,135C251.12359550561797,135,251.12359550561797,113.90625,249.43820224719101,113.90625C247.75280898876406,113.90625,247.75280898876406,131.625,246.06741573033707,131.625C244.3820224719101,131.625,244.3820224719101,135.84375,242.69662921348313,135.84375C241.01123595505618,135.84375,241.01123595505618,135,239.3258426966292,135C237.64044943820224,135,237.64044943820224,132.46875,235.95505617977528,132.46875C234.2696629213483,132.46875,234.2696629213483,132.46875,232.58426966292134,132.46875C230.8988764044944,132.46875,230.8988764044944,131.625,229.2134831460674,131.625C227.52808988764042,131.625,227.52808988764042,133.3125,225.84269662921346,133.3125C224.1573033707865,133.3125,224.1573033707865,132.46875,222.47191011235955,132.46875C220.7865168539326,132.46875,220.7865168539326,132.46875,219.1011235955056,132.46875C217.41573033707863,132.46875,217.41573033707863,133.3125,215.73033707865167,133.3125C214.04494382022472,133.3125,214.04494382022472,133.3125,212.35955056179773,133.3125C210.67415730337078,133.3125,210.67415730337078,132.46875,208.98876404494382,132.46875C207.30337078651684,132.46875,207.30337078651684,132.46875,205.61797752808988,132.46875C203.93258426966293,132.46875,203.93258426966293,132.46875,202.24719101123594,132.46875C200.56179775280896,132.46875,200.56179775280896,133.3125,198.876404494382,133.3125C197.19101123595505,133.3125,197.19101123595505,133.3125,195.5056179775281,133.3125C193.82022471910113,133.3125,193.82022471910113,133.3125,192.13483146067415,133.3125C190.44943820224717,133.3125,190.44943820224717,133.3125,188.7640449438202,133.3125C187.07865168539325,133.3125,187.07865168539325,133.3125,185.39325842696627,133.3125C183.7078651685393,133.3125,183.7078651685393,133.3125,182.02247191011236,133.3125C180.33707865168537,133.3125,180.33707865168537,133.3125,178.65168539325842,133.3125C176.96629213483146,133.3125,176.96629213483146,133.3125,175.28089887640448,133.3125C173.5955056179775,133.3125,173.5955056179775,133.3125,171.91011235955054,133.3125C170.22471910112358,133.3125,170.22471910112358,133.3125,168.53932584269666,133.3125C166.85393258426967,133.3125,166.85393258426967,134.15625,165.1685393258427,134.15625C163.4831460674157,134.15625,163.4831460674157,133.3125,161.79775280898875,133.3125C160.1123595505618,133.3125,160.1123595505618,133.3125,158.4269662921348,133.3125C156.74157303370788,133.3125,156.74157303370788,134.15625,155.05617977528092,134.15625C153.37078651685397,134.15625,153.37078651685397,133.3125,151.68539325842698,133.3125C150,133.3125,150,133.3125,148.31460674157302,133.3125C146.62921348314606,133.3125,146.62921348314606,133.3125,144.9438202247191,133.3125C143.25842696629212,133.3125,143.25842696629212,134.15625,141.57303370786516,134.15625C139.8876404494382,134.15625,139.8876404494382,133.3125,138.20224719101125,133.3125C136.5168539325843,133.3125,136.5168539325843,133.3125,134.8314606741573,133.3125C133.14606741573033,133.3125,133.14606741573033,133.3125,131.46067415730337,133.3125C129.77528089887642,133.3125,129.77528089887642,133.3125,128.08988764044943,133.3125C126.40449438202248,133.3125,126.40449438202248,133.3125,124.71910112359551,133.3125C123.03370786516854,133.3125,123.03370786516854,132.46875,121.34831460674157,132.46875C119.6629213483146,132.46875,119.6629213483146,133.3125,117.97752808988764,133.3125C116.29213483146067,133.3125,116.29213483146067,133.3125,114.6067415730337,133.3125C112.92134831460675,133.3125,112.92134831460675,134.15625,111.23595505617978,134.15625C109.5505617977528,134.15625,109.5505617977528,133.3125,107.86516853932584,133.3125C106.17977528089887,133.3125,106.17977528089887,133.3125,104.49438202247191,133.3125C102.80898876404494,133.3125,102.80898876404494,133.3125,101.12359550561797,133.3125C99.43820224719101,133.3125,99.43820224719101,133.3125,97.75280898876404,133.3125C96.06741573033707,133.3125,96.06741573033707,133.3125,94.3820224719101,133.3125C92.69662921348313,133.3125,92.69662921348313,133.3125,91.01123595505618,133.3125C89.32584269662921,133.3125,89.32584269662921,134.15625,87.64044943820224,134.15625C85.95505617977528,134.15625,85.95505617977528,133.3125,84.26966292134833,133.3125C82.58426966292134,133.3125,82.58426966292134,133.3125,80.89887640449437,133.3125C79.21348314606742,133.3125,79.21348314606742,132.46875,77.52808988764046,132.46875C75.84269662921349,132.46875,75.84269662921349,132.46875,74.15730337078651,132.46875C72.47191011235955,132.46875,72.47191011235955,133.3125,70.78651685393258,133.3125C69.10112359550561,133.3125,69.10112359550561,132.46875,67.41573033707866,132.46875C65.73033707865169,132.46875,65.73033707865169,133.3125,64.04494382022472,133.3125C62.35955056179775,133.3125,62.35955056179775,133.3125,60.674157303370784,133.3125C58.98876404494382,133.3125,58.98876404494382,132.46875,57.30337078651685,132.46875C55.61797752808988,132.46875,55.61797752808988,131.625,53.93258426966292,131.625C52.247191011235955,131.625,52.247191011235955,131.625,50.561797752808985,131.625C48.876404494382015,131.625,48.876404494382015,132.46875,47.19101123595505,132.46875C45.50561797752809,132.46875,45.50561797752809,133.3125,43.82022471910112,133.3125C42.13483146067415,133.3125,42.13483146067415,133.3125,40.44943820224719,133.3125C38.764044943820224,133.3125,38.764044943820224,132.46875,37.078651685393254,132.46875C35.39325842696629,132.46875,35.39325842696629,133.3125,33.70786516853933,133.3125C32.02247191011236,133.3125,32.02247191011236,134.15625,30.337078651685392,134.15625C28.651685393258425,134.15625,28.651685393258425,132.46875,26.96629213483146,132.46875C25.280898876404493,132.46875,25.280898876404493,132.46875,23.595505617977526,132.46875C21.91011235955056,132.46875,21.91011235955056,133.3125,20.224719101123593,133.3125C18.539325842696627,133.3125,18.539325842696627,133.3125,16.853932584269664,133.3125C15.168539325842698,133.3125,15.168539325842698,133.3125,13.48314606741573,133.3125C11.797752808988763,133.3125,11.797752808988763,133.3125,10.112359550561797,133.3125C8.42696629213483,133.3125,8.42696629213483,133.3125,6.741573033707865,133.3125C5.056179775280898,133.3125,5.056179775280898,132.46875,3.3707865168539324,132.46875C1.6853932584269662,132.46875,1.6853932584269662,132.46875,0,132.46875Z"><title>Sergio Massa</title></path></g><g id="xAxis" transform="translate(0,270)" fill="none" font-size="10" font-family="sans-serif" text-anchor="middle"><path class="domain" stroke="currentColor" d="M0.5,0.5H600.5"/><g class="tick" opacity="1" transform="translate(12.297752808988763,0)"><line stroke="currentColor" y2="6"/><text fill="currentColor" y="9" dy="0.71em">12 PM</text></g><g class="tick" opacity="1" transform="translate(88.14044943820224,0)"><line stroke="currentColor" y2="6"/><text fill="currentColor" y="9" dy="0.71em">03 PM</text></g><g class="tick" opacity="1" transform="translate(163.98314606741573,0)"><line stroke="currentColor" y2="6"/><text fill="currentColor" y="9" dy="0.71em">06 PM</text></g><g class="tick" opacity="1" transform="translate(239.8258426966292,0)"><line stroke="currentColor" y2="6"/><text fill="currentColor" y="9" dy="0.71em">09 PM</text></g><g class="tick" opacity="1" transform="translate(315.6685393258427,0)"><line stroke="currentColor" y2="6"/><text fill="currentColor" y="9" dy="0.71em">Mon 13</text></g><g class="tick" opacity="1" transform="translate(391.5112359550562,0)"><line stroke="currentColor" y2="6"/><text fill="currentColor" y="9" dy="0.71em">03 AM</text></g><g class="tick" opacity="1" transform="translate(467.3539325842696,0)"><line stroke="currentColor" y2="6"/><text fill="currentColor" y="9" dy="0.71em">06 AM</text></g><g class="tick" opacity="1" transform="translate(543.1966292134831,0)"><line stroke="currentColor" y2="6"/><text fill="currentColor" y="9" dy="0.71em">09 AM</text></g></g><text y="266" x="600" text-anchor="end" style="font-family: Arial, sans-serif; font-size: 12px; fill: rgb(123, 123, 123); font-weight: bold;">Time</text><text x="4" text-anchor="start" dominant-baseline="hanging" style="font-family: Arial, sans-serif; font-size: 12px; fill: rgb(123, 123, 123); font-weight: bold;">value</text><g id="labels"><text x="266.29213483146066" y="170.4375" text-anchor="middle" alignment-baseline="middle" style="font-family: Arial, sans-serif; font-size: 10px; fill: black; font-weight: bold; stroke-width: 2px; paint-order: stroke; stroke: white; stroke-linecap: round; stroke-linejoin: round;">Javier Milei</text><text x="256.17977528089887" y="76.78125000000001" text-anchor="middle" alignment-baseline="middle" style="font-family: Arial, sans-serif; font-size: 10px; fill: black; font-weight: bold; stroke-width: 2px; paint-order: stroke; stroke: white; stroke-linecap: round; stroke-linejoin: round;">Sergio Massa</text></g></g><text x="4" y="4" style="font-family: Arial, sans-serif; font-size: 12px; fill: black; font-weight: bold; dominant-baseline: hanging;"/></g></g></svg>