<svg xmlns="http://www.w3.org/2000/svg" width="925" height="400"><rect width="925" height="400" x="0" y="0" fill="#ffffff" id="background"/><g id="viz"><g transform="translate(0,0)"><g transform="translate(20,20)"><g><path fill="#bcbd22" d="M0,173.70000000000002C14.166666666666666,173.70000000000002,14.166666666666666,199.99285714285713,28.333333333333332,199.99285714285713C42.5,199.99285714285713,42.5,185.4,56.666666666666664,185.4C70.83333333333333,185.4,70.83333333333333,178.39285714285714,85,178.39285714285714C99.16666666666666,178.39285714285714,99.16666666666666,187.52142857142857,113.33333333333333,187.52142857142857C127.5,187.52142857142857,127.5,175.43571428571428,141.66666666666666,175.43571428571428C155.83333333333331,175.43571428571428,155.83333333333331,150.17142857142858,170,150.17142857142858C184.16666666666666,150.17142857142858,184.16666666666666,168.17142857142858,198.33333333333331,168.17142857142858C212.5,168.17142857142858,212.5,159.17142857142858,226.66666666666666,159.17142857142858C240.83333333333331,159.17142857142858,240.83333333333331,157.05,255,157.05C269.16666666666663,157.05,269.16666666666663,92.63571428571429,283.3333333333333,92.63571428571429C297.5,92.63571428571429,297.5,175.62857142857143,311.66666666666663,175.62857142857143C325.8333333333333,175.62857142857143,325.8333333333333,226.54285714285712,340,226.54285714285712C354.16666666666663,226.54285714285712,354.16666666666663,163.79999999999998,368.3333333333333,163.79999999999998C382.5,163.79999999999998,382.5,158.01428571428573,396.66666666666663,158.01428571428573C410.8333333333333,158.01428571428573,410.8333333333333,182.7642857142857,425,182.7642857142857C439.16666666666663,182.7642857142857,439.16666666666663,169.77857142857144,453.3333333333333,169.77857142857144C467.5,169.77857142857144,467.5,180.0642857142857,481.6666666666667,180.0642857142857C495.83333333333337,180.0642857142857,495.83333333333337,169.71428571428572,510,169.71428571428572C524.1666666666667,169.71428571428572,524.1666666666667,168.49285714285716,538.3333333333334,168.49285714285716C552.5,168.49285714285716,552.5,177.8142857142857,566.6666666666666,177.8142857142857C580.8333333333333,177.8142857142857,580.8333333333333,180.45,595,180.45C609.1666666666666,180.45,609.1666666666666,181.15714285714287,623.3333333333333,181.15714285714287C637.5,181.15714285714287,637.5,176.07857142857142,651.6666666666666,176.07857142857142C665.8333333333333,176.07857142857142,665.8333333333333,164.82857142857142,680,164.82857142857142C694.1666666666667,164.82857142857142,694.1666666666667,149.97857142857143,708.3333333333334,149.97857142857143C722.5,149.97857142857143,722.5,155.7,736.6666666666666,155.7C750.8333333333333,155.7,750.8333333333333,180.0642857142857,765,180.0642857142857L765,192.66428571428574C750.8333333333333,192.66428571428574,750.8333333333333,336.0857142857143,736.6666666666666,336.0857142857143C722.5,336.0857142857143,722.5,250.65,708.3333333333334,250.65C694.1666666666667,250.65,694.1666666666667,263.7,680,263.7C665.8333333333333,263.7,665.8333333333333,281.12142857142857,651.6666666666666,281.12142857142857C637.5,281.12142857142857,637.5,270.3857142857143,623.3333333333333,270.3857142857143C609.1666666666666,270.3857142857143,609.1666666666666,255.40714285714284,595,255.40714285714284C580.8333333333333,255.40714285714284,580.8333333333333,281.4428571428572,566.6666666666666,281.4428571428572C552.5,281.4428571428572,552.5,253.99285714285713,538.3333333333334,253.99285714285713C524.1666666666667,253.99285714285713,524.1666666666667,251.35714285714283,510,251.35714285714283C495.83333333333337,251.35714285714283,495.83333333333337,248.20714285714283,481.6666666666667,248.20714285714283C467.5,248.20714285714283,467.5,252.8357142857143,453.3333333333333,252.8357142857143C439.16666666666663,252.8357142857143,439.16666666666663,302.97857142857146,425,302.97857142857146C410.8333333333333,302.97857142857146,410.8333333333333,261.51428571428573,396.66666666666663,261.51428571428573C382.5,261.51428571428573,382.5,299.0571428571429,368.3333333333333,299.0571428571429C354.16666666666663,299.0571428571429,354.16666666666663,319.75714285714287,340,319.75714285714287C325.8333333333333,319.75714285714287,325.8333333333333,279,311.66666666666663,279C297.5,279,297.5,323.4214285714286,283.3333333333333,323.4214285714286C269.16666666666663,323.4214285714286,269.16666666666663,242.29285714285714,255,242.29285714285714C240.83333333333331,242.29285714285714,240.83333333333331,224.6142857142857,226.66666666666666,224.6142857142857C212.5,224.6142857142857,212.5,238.8857142857143,198.33333333333331,238.8857142857143C184.16666666666666,238.8857142857143,184.16666666666666,240.42857142857144,170,240.42857142857144C155.83333333333331,240.42857142857144,155.83333333333331,260.16428571428577,141.66666666666666,260.16428571428577C127.5,260.16428571428577,127.5,236.50714285714284,113.33333333333333,236.50714285714284C99.16666666666666,236.50714285714284,99.16666666666666,254.50714285714287,85,254.50714285714287C70.83333333333333,254.50714285714287,70.83333333333333,258.9428571428572,56.666666666666664,258.9428571428572C42.5,258.9428571428572,42.5,273.40714285714284,28.333333333333332,273.40714285714284C14.166666666666666,273.40714285714284,14.166666666666666,219.4714285714286,0,219.4714285714286Z"><title>Other</title></path><path fill="#cccccc" d="M0,141.29999999999998C14.166666666666666,141.29999999999998,14.166666666666666,88.77857142857141,28.333333333333332,88.77857142857141C42.5,88.77857142857141,42.5,103.37142857142857,56.666666666666664,103.37142857142857C70.83333333333333,103.37142857142857,70.83333333333333,107.54999999999998,85,107.54999999999998C99.16666666666666,107.54999999999998,99.16666666666666,124.64999999999998,113.33333333333333,124.64999999999998C127.5,124.64999999999998,127.5,102.6642857142857,141.66666666666666,102.6642857142857C155.83333333333331,102.6642857142857,155.83333333333331,121.75714285714285,170,121.75714285714285C184.16666666666666,121.75714285714285,184.16666666666666,122.01428571428573,198.33333333333331,122.01428571428573C212.5,122.01428571428573,212.5,135.89999999999998,226.66666666666666,135.89999999999998C240.83333333333331,135.89999999999998,240.83333333333331,125.1642857142857,255,125.1642857142857C269.16666666666663,125.1642857142857,269.16666666666663,39.278571428571425,283.3333333333333,39.278571428571425C297.5,39.278571428571425,297.5,92.69999999999999,311.66666666666663,92.69999999999999C325.8333333333333,92.69999999999999,325.8333333333333,42.814285714285695,340,42.814285714285695C354.16666666666663,42.814285714285695,354.16666666666663,78.68571428571427,368.3333333333333,78.68571428571427C382.5,78.68571428571427,382.5,99.89999999999999,396.66666666666663,99.89999999999999C410.8333333333333,99.89999999999999,410.8333333333333,61.907142857142844,425,61.907142857142844C439.16666666666663,61.907142857142844,439.16666666666663,108.32142857142858,453.3333333333333,108.32142857142858C467.5,108.32142857142858,467.5,113.46428571428571,481.6666666666667,113.46428571428571C495.83333333333337,113.46428571428571,495.83333333333337,111.60000000000002,510,111.60000000000002C524.1666666666667,111.60000000000002,524.1666666666667,107.67857142857144,538.3333333333334,107.67857142857144C552.5,107.67857142857144,552.5,80.10000000000001,566.6666666666666,80.10000000000001C580.8333333333333,80.10000000000001,580.8333333333333,106.90714285714284,595,106.90714285714284C609.1666666666666,106.90714285714284,609.1666666666666,91.92857142857142,623.3333333333333,91.92857142857142C637.5,91.92857142857142,637.5,82.73571428571431,651.6666666666666,82.73571428571431C665.8333333333333,82.73571428571431,665.8333333333333,97.71428571428572,680,97.71428571428572C694.1666666666667,97.71428571428572,694.1666666666667,109.99285714285713,708.3333333333334,109.99285714285713C722.5,109.99285714285713,722.5,28.414285714285725,736.6666666666666,28.414285714285725C750.8333333333333,28.414285714285725,750.8333333333333,168.3642857142857,765,168.3642857142857L765,168.49285714285716C750.8333333333333,168.49285714285716,750.8333333333333,30.085714285714268,736.6666666666666,30.085714285714268C722.5,30.085714285714268,722.5,111.27857142857141,708.3333333333334,111.27857142857141C694.1666666666667,111.27857142857141,694.1666666666667,99.51428571428573,680,99.51428571428573C665.8333333333333,99.51428571428573,665.8333333333333,83.89285714285712,651.6666666666666,83.89285714285712C637.5,83.89285714285712,637.5,93.08571428571429,623.3333333333333,93.08571428571429C609.1666666666666,93.08571428571429,609.1666666666666,108.0642857142857,595,108.0642857142857C580.8333333333333,108.0642857142857,580.8333333333333,80.99999999999999,566.6666666666666,80.99999999999999C552.5,80.99999999999999,552.5,108.45,538.3333333333334,108.45C524.1666666666667,108.45,524.1666666666667,113.14285714285714,510,113.14285714285714C495.83333333333337,113.14285714285714,495.83333333333337,114.49285714285715,481.6666666666667,114.49285714285715C467.5,114.49285714285715,467.5,109.60714285714286,453.3333333333333,109.60714285714286C439.16666666666663,109.60714285714286,439.16666666666663,63.96428571428573,425,63.96428571428573C410.8333333333333,63.96428571428573,410.8333333333333,101.31428571428573,396.66666666666663,101.31428571428573C382.5,101.31428571428573,382.5,80.61428571428573,368.3333333333333,80.61428571428573C354.16666666666663,80.61428571428573,354.16666666666663,48.72857142857142,340,48.72857142857142C325.8333333333333,48.72857142857142,325.8333333333333,98.1,311.66666666666663,98.1C297.5,98.1,297.5,45.19285714285715,283.3333333333333,45.19285714285715C269.16666666666663,45.19285714285715,269.16666666666663,131.59285714285716,255,131.59285714285716C240.83333333333331,131.59285714285716,240.83333333333331,142.07142857142858,226.66666666666666,142.07142857142858C212.5,142.07142857142858,212.5,127.8,198.33333333333331,127.8C184.16666666666666,127.8,184.16666666666666,127.15714285714286,170,127.15714285714286C155.83333333333331,127.15714285714286,155.83333333333331,108.0642857142857,141.66666666666666,108.0642857142857C127.5,108.0642857142857,127.5,129.92142857142858,113.33333333333333,129.92142857142858C99.16666666666666,129.92142857142858,99.16666666666666,113.07857142857141,85,113.07857142857141C70.83333333333333,113.07857142857141,70.83333333333333,110.18571428571428,56.666666666666664,110.18571428571428C42.5,110.18571428571428,42.5,94.69285714285714,28.333333333333332,94.69285714285714C14.166666666666666,94.69285714285714,14.166666666666666,144.77142857142857,0,144.77142857142857Z"><title>Play</title></path><path fill="#f8e71c" d="M0,149.91428571428574C14.166666666666666,149.91428571428574,14.166666666666666,105.74999999999999,28.333333333333332,105.74999999999999C42.5,105.74999999999999,42.5,125.74285714285715,56.666666666666664,125.74285714285715C70.83333333333333,125.74285714285715,70.83333333333333,129.40714285714284,85,129.40714285714284C99.16666666666666,129.40714285714284,99.16666666666666,138.15,113.33333333333333,138.15C127.5,138.15,127.5,125.55,141.66666666666666,125.55C155.83333333333331,125.55,155.83333333333331,145.67142857142858,170,145.67142857142858C184.16666666666666,145.67142857142858,184.16666666666666,143.4857142857143,198.33333333333331,143.4857142857143C212.5,143.4857142857143,212.5,153.64285714285717,226.66666666666666,153.64285714285717C240.83333333333331,153.64285714285717,240.83333333333331,144.96428571428572,255,144.96428571428572C269.16666666666663,144.96428571428572,269.16666666666663,54.70714285714284,283.3333333333333,54.70714285714284C297.5,54.70714285714284,297.5,135.3857142857143,311.66666666666663,135.3857142857143C325.8333333333333,135.3857142857143,325.8333333333333,69.17142857142858,340,69.17142857142858C354.16666666666663,69.17142857142858,354.16666666666663,139.75714285714287,368.3333333333333,139.75714285714287C382.5,139.75714285714287,382.5,127.54285714285716,396.66666666666663,127.54285714285716C410.8333333333333,127.54285714285716,410.8333333333333,131.72142857142856,425,131.72142857142856C439.16666666666663,131.72142857142856,439.16666666666663,144.57857142857142,453.3333333333333,144.57857142857142C467.5,144.57857142857142,467.5,128.63571428571427,481.6666666666667,128.63571428571427C495.83333333333337,128.63571428571427,495.83333333333337,126.77142857142856,510,126.77142857142856C524.1666666666667,126.77142857142856,524.1666666666667,121.5642857142857,538.3333333333334,121.5642857142857C552.5,121.5642857142857,552.5,154.67142857142855,566.6666666666666,154.67142857142855C580.8333333333333,154.67142857142855,580.8333333333333,144.70714285714283,595,144.70714285714283C609.1666666666666,144.70714285714283,609.1666666666666,123.68571428571427,623.3333333333333,123.68571428571427C637.5,123.68571428571427,637.5,106.13571428571429,651.6666666666666,106.13571428571429C665.8333333333333,106.13571428571429,665.8333333333333,120.34285714285714,680,120.34285714285714C694.1666666666667,120.34285714285714,694.1666666666667,130.82142857142858,708.3333333333334,130.82142857142858C722.5,130.82142857142858,722.5,61.20000000000002,736.6666666666666,61.20000000000002C750.8333333333333,61.20000000000002,750.8333333333333,174.6642857142857,765,174.6642857142857L765,175.82142857142858C750.8333333333333,175.82142857142858,750.8333333333333,103.6285714285714,736.6666666666666,103.6285714285714C722.5,103.6285714285714,722.5,148.56428571428572,708.3333333333334,148.56428571428572C694.1666666666667,148.56428571428572,694.1666666666667,149.91428571428574,680,149.91428571428574C665.8333333333333,149.91428571428574,665.8333333333333,113.46428571428571,651.6666666666666,113.46428571428571C637.5,113.46428571428571,637.5,132.17142857142855,623.3333333333333,132.17142857142855C609.1666666666666,132.17142857142855,609.1666666666666,168.10714285714286,595,168.10714285714286C580.8333333333333,168.10714285714286,580.8333333333333,165.21428571428572,566.6666666666666,165.21428571428572C552.5,165.21428571428572,552.5,150.74999999999997,538.3333333333334,150.74999999999997C524.1666666666667,150.74999999999997,524.1666666666667,148.24285714285716,510,148.24285714285716C495.83333333333337,148.24285714285716,495.83333333333337,150.49285714285713,481.6666666666667,150.49285714285713C467.5,150.49285714285713,467.5,151.3928571428571,453.3333333333333,151.3928571428571C439.16666666666663,151.3928571428571,439.16666666666663,144.19285714285715,425,144.19285714285715C410.8333333333333,144.19285714285715,410.8333333333333,131.27142857142857,396.66666666666663,131.27142857142857C382.5,131.27142857142857,382.5,144.51428571428573,368.3333333333333,144.51428571428573C354.16666666666663,144.51428571428573,354.16666666666663,101.82857142857141,340,101.82857142857141C325.8333333333333,101.82857142857141,325.8333333333333,152.1,311.66666666666663,152.1C297.5,152.1,297.5,91.99285714285715,283.3333333333333,91.99285714285715C269.16666666666663,91.99285714285715,269.16666666666663,156.2785714285714,255,156.2785714285714C240.83333333333331,156.2785714285714,240.83333333333331,158.39999999999998,226.66666666666666,158.39999999999998C212.5,158.39999999999998,212.5,160.45714285714286,198.33333333333331,160.45714285714286C184.16666666666666,160.45714285714286,184.16666666666666,149.0142857142857,170,149.0142857142857C155.83333333333331,149.0142857142857,155.83333333333331,170.42142857142858,141.66666666666666,170.42142857142858C127.5,170.42142857142858,127.5,186.2357142857143,113.33333333333333,186.2357142857143C99.16666666666666,186.2357142857143,99.16666666666666,151.90714285714284,85,151.90714285714284C70.83333333333333,151.90714285714284,70.83333333333333,179.74285714285716,56.666666666666664,179.74285714285716C42.5,179.74285714285716,42.5,116.29285714285716,28.333333333333332,116.29285714285716C14.166666666666666,116.29285714285716,14.166666666666666,173.44285714285712,0,173.44285714285712Z"><title>YouTube</title></path><path fill="#e377c2" d="M0,140.9142857142857C14.166666666666666,140.9142857142857,14.166666666666666,87.36428571428571,28.333333333333332,87.36428571428571C42.5,87.36428571428571,42.5,102.60000000000001,56.666666666666664,102.60000000000001C70.83333333333333,102.60000000000001,70.83333333333333,106.65,85,106.65C99.16666666666666,106.65,99.16666666666666,124.52142857142856,113.33333333333333,124.52142857142856C127.5,124.52142857142856,127.5,102.02142857142856,141.66666666666666,102.02142857142856C155.83333333333331,102.02142857142856,155.83333333333331,121.3714285714286,170,121.3714285714286C184.16666666666666,121.3714285714286,184.16666666666666,121.88571428571427,198.33333333333331,121.88571428571427C212.5,121.88571428571427,212.5,135.77142857142857,226.66666666666666,135.77142857142857C240.83333333333331,135.77142857142857,240.83333333333331,124.52142857142856,255,124.52142857142856C269.16666666666663,124.52142857142856,269.16666666666663,38.892857142857125,283.3333333333333,38.892857142857125C297.5,38.892857142857125,297.5,92.05714285714284,311.66666666666663,92.05714285714284C325.8333333333333,92.05714285714284,325.8333333333333,41.14285714285715,340,41.14285714285715C354.16666666666663,41.14285714285715,354.16666666666663,63.64285714285715,368.3333333333333,63.64285714285715C382.5,63.64285714285715,382.5,98.4857142857143,396.66666666666663,98.4857142857143C410.8333333333333,98.4857142857143,410.8333333333333,59.85,425,59.85C439.16666666666663,59.85,439.16666666666663,108.0642857142857,453.3333333333333,108.0642857142857C467.5,108.0642857142857,467.5,113.07857142857141,481.6666666666667,113.07857142857141C495.83333333333337,113.07857142857141,495.83333333333337,110.05714285714286,510,110.05714285714286C524.1666666666667,110.05714285714286,524.1666666666667,106.65,538.3333333333334,106.65C552.5,106.65,552.5,79.58571428571429,566.6666666666666,79.58571428571429C580.8333333333333,79.58571428571429,580.8333333333333,105.36428571428573,595,105.36428571428573C609.1666666666666,105.36428571428573,609.1666666666666,90.25714285714284,623.3333333333333,90.25714285714284C637.5,90.25714285714284,637.5,80.80714285714284,651.6666666666666,80.80714285714284C665.8333333333333,80.80714285714284,665.8333333333333,97.45714285714284,680,97.45714285714284C694.1666666666667,97.45714285714284,694.1666666666667,109.86428571428571,708.3333333333334,109.86428571428571C722.5,109.86428571428571,722.5,26.614285714285725,736.6666666666666,26.614285714285725C750.8333333333333,26.614285714285725,750.8333333333333,167.3357142857143,765,167.3357142857143L765,168.3642857142857C750.8333333333333,168.3642857142857,750.8333333333333,28.414285714285725,736.6666666666666,28.414285714285725C722.5,28.414285714285725,722.5,109.99285714285713,708.3333333333334,109.99285714285713C694.1666666666667,109.99285714285713,694.1666666666667,97.71428571428572,680,97.71428571428572C665.8333333333333,97.71428571428572,665.8333333333333,82.73571428571431,651.6666666666666,82.73571428571431C637.5,82.73571428571431,637.5,91.92857142857142,623.3333333333333,91.92857142857142C609.1666666666666,91.92857142857142,609.1666666666666,106.90714285714284,595,106.90714285714284C580.8333333333333,106.90714285714284,580.8333333333333,80.10000000000001,566.6666666666666,80.10000000000001C552.5,80.10000000000001,552.5,107.67857142857144,538.3333333333334,107.67857142857144C524.1666666666667,107.67857142857144,524.1666666666667,111.60000000000002,510,111.60000000000002C495.83333333333337,111.60000000000002,495.83333333333337,113.46428571428571,481.6666666666667,113.46428571428571C467.5,113.46428571428571,467.5,108.32142857142858,453.3333333333333,108.32142857142858C439.16666666666663,108.32142857142858,439.16666666666663,61.907142857142844,425,61.907142857142844C410.8333333333333,61.907142857142844,410.8333333333333,99.89999999999999,396.66666666666663,99.89999999999999C382.5,99.89999999999999,382.5,78.68571428571427,368.3333333333333,78.68571428571427C354.16666666666663,78.68571428571427,354.16666666666663,42.814285714285695,340,42.814285714285695C325.8333333333333,42.814285714285695,325.8333333333333,92.69999999999999,311.66666666666663,92.69999999999999C297.5,92.69999999999999,297.5,39.278571428571425,283.3333333333333,39.278571428571425C269.16666666666663,39.278571428571425,269.16666666666663,125.1642857142857,255,125.1642857142857C240.83333333333331,125.1642857142857,240.83333333333331,135.89999999999998,226.66666666666666,135.89999999999998C212.5,135.89999999999998,212.5,122.01428571428573,198.33333333333331,122.01428571428573C184.16666666666666,122.01428571428573,184.16666666666666,121.75714285714285,170,121.75714285714285C155.83333333333331,121.75714285714285,155.83333333333331,102.6642857142857,141.66666666666666,102.6642857142857C127.5,102.6642857142857,127.5,124.64999999999998,113.33333333333333,124.64999999999998C99.16666666666666,124.64999999999998,99.16666666666666,107.54999999999998,85,107.54999999999998C70.83333333333333,107.54999999999998,70.83333333333333,103.37142857142857,56.666666666666664,103.37142857142857C42.5,103.37142857142857,42.5,88.77857142857141,28.333333333333332,88.77857142857141C14.166666666666666,88.77857142857141,14.166666666666666,141.29999999999998,0,141.29999999999998Z"><title>Gmail</title></path><path fill="#9467bd" d="M0,144.77142857142857C14.166666666666666,144.77142857142857,14.166666666666666,94.69285714285714,28.333333333333332,94.69285714285714C42.5,94.69285714285714,42.5,110.18571428571428,56.666666666666664,110.18571428571428C70.83333333333333,110.18571428571428,70.83333333333333,113.07857142857141,85,113.07857142857141C99.16666666666666,113.07857142857141,99.16666666666666,129.92142857142858,113.33333333333333,129.92142857142858C127.5,129.92142857142858,127.5,108.0642857142857,141.66666666666666,108.0642857142857C155.83333333333331,108.0642857142857,155.83333333333331,127.15714285714286,170,127.15714285714286C184.16666666666666,127.15714285714286,184.16666666666666,127.8,198.33333333333331,127.8C212.5,127.8,212.5,142.07142857142858,226.66666666666666,142.07142857142858C240.83333333333331,142.07142857142858,240.83333333333331,131.59285714285716,255,131.59285714285716C269.16666666666663,131.59285714285716,269.16666666666663,45.19285714285715,283.3333333333333,45.19285714285715C297.5,45.19285714285715,297.5,98.1,311.66666666666663,98.1C325.8333333333333,98.1,325.8333333333333,48.72857142857142,340,48.72857142857142C354.16666666666663,48.72857142857142,354.16666666666663,80.61428571428573,368.3333333333333,80.61428571428573C382.5,80.61428571428573,382.5,101.31428571428573,396.66666666666663,101.31428571428573C410.8333333333333,101.31428571428573,410.8333333333333,63.96428571428573,425,63.96428571428573C439.16666666666663,63.96428571428573,439.16666666666663,109.60714285714286,453.3333333333333,109.60714285714286C467.5,109.60714285714286,467.5,114.49285714285715,481.6666666666667,114.49285714285715C495.83333333333337,114.49285714285715,495.83333333333337,113.14285714285714,510,113.14285714285714C524.1666666666667,113.14285714285714,524.1666666666667,108.45,538.3333333333334,108.45C552.5,108.45,552.5,80.99999999999999,566.6666666666666,80.99999999999999C580.8333333333333,80.99999999999999,580.8333333333333,108.0642857142857,595,108.0642857142857C609.1666666666666,108.0642857142857,609.1666666666666,93.08571428571429,623.3333333333333,93.08571428571429C637.5,93.08571428571429,637.5,83.89285714285712,651.6666666666666,83.89285714285712C665.8333333333333,83.89285714285712,665.8333333333333,99.51428571428573,680,99.51428571428573C694.1666666666667,99.51428571428573,694.1666666666667,111.27857142857141,708.3333333333334,111.27857142857141C722.5,111.27857142857141,722.5,30.085714285714268,736.6666666666666,30.085714285714268C750.8333333333333,30.085714285714268,750.8333333333333,168.49285714285716,765,168.49285714285716L765,168.62142857142857C750.8333333333333,168.62142857142857,750.8333333333333,30.471428571428568,736.6666666666666,30.471428571428568C722.5,30.471428571428568,722.5,113.59285714285713,708.3333333333334,113.59285714285713C694.1666666666667,113.59285714285713,694.1666666666667,109.15714285714287,680,109.15714285714287C665.8333333333333,109.15714285714287,665.8333333333333,83.89285714285712,651.6666666666666,83.89285714285712C637.5,83.89285714285712,637.5,93.08571428571429,623.3333333333333,93.08571428571429C609.1666666666666,93.08571428571429,609.1666666666666,112.69285714285715,595,112.69285714285715C580.8333333333333,112.69285714285715,580.8333333333333,142.97142857142856,566.6666666666666,142.97142857142856C552.5,142.97142857142856,552.5,108.57857142857142,538.3333333333334,108.57857142857142C524.1666666666667,108.57857142857142,524.1666666666667,113.14285714285714,510,113.14285714285714C495.83333333333337,113.14285714285714,495.83333333333337,114.49285714285715,481.6666666666667,114.49285714285715C467.5,114.49285714285715,467.5,112.94999999999999,453.3333333333333,112.94999999999999C439.16666666666663,112.94999999999999,439.16666666666663,118.09285714285716,425,118.09285714285716C410.8333333333333,118.09285714285716,410.8333333333333,112.37142857142858,396.66666666666663,112.37142857142858C382.5,112.37142857142858,382.5,125.22857142857143,368.3333333333333,125.22857142857143C354.16666666666663,125.22857142857143,354.16666666666663,49.11428571428572,340,49.11428571428572C325.8333333333333,49.11428571428572,325.8333333333333,98.8714285714286,311.66666666666663,98.8714285714286C297.5,98.8714285714286,297.5,45.70714285714287,283.3333333333333,45.70714285714287C269.16666666666663,45.70714285714287,269.16666666666663,131.59285714285716,255,131.59285714285716C240.83333333333331,131.59285714285716,240.83333333333331,142.20000000000002,226.66666666666666,142.20000000000002C212.5,142.20000000000002,212.5,128.05714285714288,198.33333333333331,128.05714285714288C184.16666666666666,128.05714285714288,184.16666666666666,127.41428571428574,170,127.41428571428574C155.83333333333331,127.41428571428574,155.83333333333331,108.45,141.66666666666666,108.45C127.5,108.45,127.5,130.30714285714288,113.33333333333333,130.30714285714288C99.16666666666666,130.30714285714288,99.16666666666666,113.46428571428571,85,113.46428571428571C70.83333333333333,113.46428571428571,70.83333333333333,110.95714285714284,56.666666666666664,110.95714285714284C42.5,110.95714285714284,42.5,94.95000000000002,28.333333333333332,94.95000000000002C14.166666666666666,94.95000000000002,14.166666666666666,144.77142857142857,0,144.77142857142857Z"><title>Drive</title></path><path fill="#17becf" d="M0,149.91428571428574C14.166666666666666,149.91428571428574,14.166666666666666,100.73571428571428,28.333333333333332,100.73571428571428C42.5,100.73571428571428,42.5,118.41428571428573,56.666666666666664,118.41428571428573C70.83333333333333,118.41428571428573,70.83333333333333,119.50714285714285,85,119.50714285714285C99.16666666666666,119.50714285714285,99.16666666666666,138.15,113.33333333333333,138.15C127.5,138.15,127.5,114.74999999999999,141.66666666666666,114.74999999999999C155.83333333333331,114.74999999999999,155.83333333333331,137.1857142857143,170,137.1857142857143C184.16666666666666,137.1857142857143,184.16666666666666,137.7,198.33333333333331,137.7C212.5,137.7,212.5,153.64285714285717,226.66666666666666,153.64285714285717C240.83333333333331,153.64285714285717,240.83333333333331,137.25,255,137.25C269.16666666666663,137.25,269.16666666666663,53.42142857142856,283.3333333333333,53.42142857142856C297.5,53.42142857142856,297.5,109.15714285714287,311.66666666666663,109.15714285714287C325.8333333333333,109.15714285714287,325.8333333333333,60.55714285714287,340,60.55714285714287C354.16666666666663,60.55714285714287,354.16666666666663,134.35714285714286,368.3333333333333,134.35714285714286C382.5,134.35714285714286,382.5,117.38571428571429,396.66666666666663,117.38571428571429C410.8333333333333,117.38571428571429,410.8333333333333,122.07857142857142,425,122.07857142857142C439.16666666666663,122.07857142857142,439.16666666666663,119.25000000000001,453.3333333333333,119.25000000000001C467.5,119.25000000000001,467.5,121.95,481.6666666666667,121.95C495.83333333333337,121.95,495.83333333333337,120.9857142857143,510,120.9857142857143C524.1666666666667,120.9857142857143,524.1666666666667,120.66428571428571,538.3333333333334,120.66428571428571C552.5,120.66428571428571,552.5,150.17142857142858,566.6666666666666,150.17142857142858C580.8333333333333,150.17142857142858,580.8333333333333,117.70714285714286,595,117.70714285714286C609.1666666666666,117.70714285714286,609.1666666666666,104.52857142857144,623.3333333333333,104.52857142857144C637.5,104.52857142857144,637.5,97.26428571428569,651.6666666666666,97.26428571428569C665.8333333333333,97.26428571428569,665.8333333333333,116.48571428571431,680,116.48571428571431C694.1666666666667,116.48571428571431,694.1666666666667,125.67857142857142,708.3333333333334,125.67857142857142C722.5,125.67857142857142,722.5,47.05714285714284,736.6666666666666,47.05714285714284C750.8333333333333,47.05714285714284,750.8333333333333,170.03571428571428,765,170.03571428571428L765,174.6642857142857C750.8333333333333,174.6642857142857,750.8333333333333,61.20000000000002,736.6666666666666,61.20000000000002C722.5,61.20000000000002,722.5,130.82142857142858,708.3333333333334,130.82142857142858C694.1666666666667,130.82142857142858,694.1666666666667,120.34285714285714,680,120.34285714285714C665.8333333333333,120.34285714285714,665.8333333333333,106.13571428571429,651.6666666666666,106.13571428571429C637.5,106.13571428571429,637.5,123.68571428571427,623.3333333333333,123.68571428571427C609.1666666666666,123.68571428571427,609.1666666666666,144.70714285714283,595,144.70714285714283C580.8333333333333,144.70714285714283,580.8333333333333,154.67142857142855,566.6666666666666,154.67142857142855C552.5,154.67142857142855,552.5,121.5642857142857,538.3333333333334,121.5642857142857C524.1666666666667,121.5642857142857,524.1666666666667,126.77142857142856,510,126.77142857142856C495.83333333333337,126.77142857142856,495.83333333333337,128.63571428571427,481.6666666666667,128.63571428571427C467.5,128.63571428571427,467.5,144.57857142857142,453.3333333333333,144.57857142857142C439.16666666666663,144.57857142857142,439.16666666666663,131.72142857142856,425,131.72142857142856C410.8333333333333,131.72142857142856,410.8333333333333,127.54285714285716,396.66666666666663,127.54285714285716C382.5,127.54285714285716,382.5,139.75714285714287,368.3333333333333,139.75714285714287C354.16666666666663,139.75714285714287,354.16666666666663,69.17142857142858,340,69.17142857142858C325.8333333333333,69.17142857142858,325.8333333333333,135.3857142857143,311.66666666666663,135.3857142857143C297.5,135.3857142857143,297.5,54.70714285714284,283.3333333333333,54.70714285714284C269.16666666666663,54.70714285714284,269.16666666666663,144.96428571428572,255,144.96428571428572C240.83333333333331,144.96428571428572,240.83333333333331,153.64285714285717,226.66666666666666,153.64285714285717C212.5,153.64285714285717,212.5,143.4857142857143,198.33333333333331,143.4857142857143C184.16666666666666,143.4857142857143,184.16666666666666,145.67142857142858,170,145.67142857142858C155.83333333333331,145.67142857142858,155.83333333333331,125.55,141.66666666666666,125.55C127.5,125.55,127.5,138.15,113.33333333333333,138.15C99.16666666666666,138.15,99.16666666666666,129.40714285714284,85,129.40714285714284C70.83333333333333,129.40714285714284,70.83333333333333,125.74285714285715,56.666666666666664,125.74285714285715C42.5,125.74285714285715,42.5,105.74999999999999,28.333333333333332,105.74999999999999C14.166666666666666,105.74999999999999,14.166666666666666,149.91428571428574,0,149.91428571428574Z"><title>Photos</title></path><path fill="#7f7f7f" d="M0,173.44285714285712C14.166666666666666,173.44285714285712,14.166666666666666,116.29285714285716,28.333333333333332,116.29285714285716C42.5,116.29285714285716,42.5,179.74285714285716,56.666666666666664,179.74285714285716C70.83333333333333,179.74285714285716,70.83333333333333,151.90714285714284,85,151.90714285714284C99.16666666666666,151.90714285714284,99.16666666666666,186.2357142857143,113.33333333333333,186.2357142857143C127.5,186.2357142857143,127.5,170.42142857142858,141.66666666666666,170.42142857142858C155.83333333333331,170.42142857142858,155.83333333333331,149.0142857142857,170,149.0142857142857C184.16666666666666,149.0142857142857,184.16666666666666,160.45714285714286,198.33333333333331,160.45714285714286C212.5,160.45714285714286,212.5,158.39999999999998,226.66666666666666,158.39999999999998C240.83333333333331,158.39999999999998,240.83333333333331,156.2785714285714,255,156.2785714285714C269.16666666666663,156.2785714285714,269.16666666666663,91.99285714285715,283.3333333333333,91.99285714285715C297.5,91.99285714285715,297.5,152.1,311.66666666666663,152.1C325.8333333333333,152.1,325.8333333333333,101.82857142857141,340,101.82857142857141C354.16666666666663,101.82857142857141,354.16666666666663,144.51428571428573,368.3333333333333,144.51428571428573C382.5,144.51428571428573,382.5,131.27142857142857,396.66666666666663,131.27142857142857C410.8333333333333,131.27142857142857,410.8333333333333,144.19285714285715,425,144.19285714285715C439.16666666666663,144.19285714285715,439.16666666666663,151.3928571428571,453.3333333333333,151.3928571428571C467.5,151.3928571428571,467.5,150.49285714285713,481.6666666666667,150.49285714285713C495.83333333333337,150.49285714285713,495.83333333333337,148.24285714285716,510,148.24285714285716C524.1666666666667,148.24285714285716,524.1666666666667,150.74999999999997,538.3333333333334,150.74999999999997C552.5,150.74999999999997,552.5,165.21428571428572,566.6666666666666,165.21428571428572C580.8333333333333,165.21428571428572,580.8333333333333,168.10714285714286,595,168.10714285714286C609.1666666666666,168.10714285714286,609.1666666666666,132.17142857142855,623.3333333333333,132.17142857142855C637.5,132.17142857142855,637.5,113.46428571428571,651.6666666666666,113.46428571428571C665.8333333333333,113.46428571428571,665.8333333333333,149.91428571428574,680,149.91428571428574C694.1666666666667,149.91428571428574,694.1666666666667,148.56428571428572,708.3333333333334,148.56428571428572C722.5,148.56428571428572,722.5,103.6285714285714,736.6666666666666,103.6285714285714C750.8333333333333,103.6285714285714,750.8333333333333,175.82142857142858,765,175.82142857142858L765,180.0642857142857C750.8333333333333,180.0642857142857,750.8333333333333,155.7,736.6666666666666,155.7C722.5,155.7,722.5,149.97857142857143,708.3333333333334,149.97857142857143C694.1666666666667,149.97857142857143,694.1666666666667,164.82857142857142,680,164.82857142857142C665.8333333333333,164.82857142857142,665.8333333333333,176.07857142857142,651.6666666666666,176.07857142857142C637.5,176.07857142857142,637.5,181.15714285714287,623.3333333333333,181.15714285714287C609.1666666666666,181.15714285714287,609.1666666666666,180.45,595,180.45C580.8333333333333,180.45,580.8333333333333,177.8142857142857,566.6666666666666,177.8142857142857C552.5,177.8142857142857,552.5,168.49285714285716,538.3333333333334,168.49285714285716C524.1666666666667,168.49285714285716,524.1666666666667,169.71428571428572,510,169.71428571428572C495.83333333333337,169.71428571428572,495.83333333333337,180.0642857142857,481.6666666666667,180.0642857142857C467.5,180.0642857142857,467.5,169.77857142857144,453.3333333333333,169.77857142857144C439.16666666666663,169.77857142857144,439.16666666666663,182.7642857142857,425,182.7642857142857C410.8333333333333,182.7642857142857,410.8333333333333,158.01428571428573,396.66666666666663,158.01428571428573C382.5,158.01428571428573,382.5,163.79999999999998,368.3333333333333,163.79999999999998C354.16666666666663,163.79999999999998,354.16666666666663,226.54285714285712,340,226.54285714285712C325.8333333333333,226.54285714285712,325.8333333333333,175.62857142857143,311.66666666666663,175.62857142857143C297.5,175.62857142857143,297.5,92.63571428571429,283.3333333333333,92.63571428571429C269.16666666666663,92.63571428571429,269.16666666666663,157.05,255,157.05C240.83333333333331,157.05,240.83333333333331,159.17142857142858,226.66666666666666,159.17142857142858C212.5,159.17142857142858,212.5,168.17142857142858,198.33333333333331,168.17142857142858C184.16666666666666,168.17142857142858,184.16666666666666,150.17142857142858,170,150.17142857142858C155.83333333333331,150.17142857142858,155.83333333333331,175.43571428571428,141.66666666666666,175.43571428571428C127.5,175.43571428571428,127.5,187.52142857142857,113.33333333333333,187.52142857142857C99.16666666666666,187.52142857142857,99.16666666666666,178.39285714285714,85,178.39285714285714C70.83333333333333,178.39285714285714,70.83333333333333,185.4,56.666666666666664,185.4C42.5,185.4,42.5,199.99285714285713,28.333333333333332,199.99285714285713C14.166666666666666,199.99285714285713,14.166666666666666,173.70000000000002,0,173.70000000000002Z"><title>Maps</title></path><path fill="#2ca02c" d="M0,144.77142857142857C14.166666666666666,144.77142857142857,14.166666666666666,94.95000000000002,28.333333333333332,94.95000000000002C42.5,94.95000000000002,42.5,110.95714285714284,56.666666666666664,110.95714285714284C70.83333333333333,110.95714285714284,70.83333333333333,113.46428571428571,85,113.46428571428571C99.16666666666666,113.46428571428571,99.16666666666666,130.30714285714288,113.33333333333333,130.30714285714288C127.5,130.30714285714288,127.5,108.45,141.66666666666666,108.45C155.83333333333331,108.45,155.83333333333331,127.41428571428574,170,127.41428571428574C184.16666666666666,127.41428571428574,184.16666666666666,128.05714285714288,198.33333333333331,128.05714285714288C212.5,128.05714285714288,212.5,142.20000000000002,226.66666666666666,142.20000000000002C240.83333333333331,142.20000000000002,240.83333333333331,131.59285714285716,255,131.59285714285716C269.16666666666663,131.59285714285716,269.16666666666663,45.70714285714287,283.3333333333333,45.70714285714287C297.5,45.70714285714287,297.5,98.8714285714286,311.66666666666663,98.8714285714286C325.8333333333333,98.8714285714286,325.8333333333333,49.11428571428572,340,49.11428571428572C354.16666666666663,49.11428571428572,354.16666666666663,125.22857142857143,368.3333333333333,125.22857142857143C382.5,125.22857142857143,382.5,112.37142857142858,396.66666666666663,112.37142857142858C410.8333333333333,112.37142857142858,410.8333333333333,118.09285714285716,425,118.09285714285716C439.16666666666663,118.09285714285716,439.16666666666663,112.94999999999999,453.3333333333333,112.94999999999999C467.5,112.94999999999999,467.5,114.49285714285715,481.6666666666667,114.49285714285715C495.83333333333337,114.49285714285715,495.83333333333337,113.14285714285714,510,113.14285714285714C524.1666666666667,113.14285714285714,524.1666666666667,108.57857142857142,538.3333333333334,108.57857142857142C552.5,108.57857142857142,552.5,142.97142857142856,566.6666666666666,142.97142857142856C580.8333333333333,142.97142857142856,580.8333333333333,112.69285714285715,595,112.69285714285715C609.1666666666666,112.69285714285715,609.1666666666666,93.08571428571429,623.3333333333333,93.08571428571429C637.5,93.08571428571429,637.5,83.89285714285712,651.6666666666666,83.89285714285712C665.8333333333333,83.89285714285712,665.8333333333333,109.15714285714287,680,109.15714285714287C694.1666666666667,109.15714285714287,694.1666666666667,113.59285714285713,708.3333333333334,113.59285714285713C722.5,113.59285714285713,722.5,30.471428571428568,736.6666666666666,30.471428571428568C750.8333333333333,30.471428571428568,750.8333333333333,168.62142857142857,765,168.62142857142857L765,170.03571428571428C750.8333333333333,170.03571428571428,750.8333333333333,47.05714285714284,736.6666666666666,47.05714285714284C722.5,47.05714285714284,722.5,125.67857142857142,708.3333333333334,125.67857142857142C694.1666666666667,125.67857142857142,694.1666666666667,116.48571428571431,680,116.48571428571431C665.8333333333333,116.48571428571431,665.8333333333333,97.26428571428569,651.6666666666666,97.26428571428569C637.5,97.26428571428569,637.5,104.52857142857144,623.3333333333333,104.52857142857144C609.1666666666666,104.52857142857144,609.1666666666666,117.70714285714286,595,117.70714285714286C580.8333333333333,117.70714285714286,580.8333333333333,150.17142857142858,566.6666666666666,150.17142857142858C552.5,150.17142857142858,552.5,120.66428571428571,538.3333333333334,120.66428571428571C524.1666666666667,120.66428571428571,524.1666666666667,120.9857142857143,510,120.9857142857143C495.83333333333337,120.9857142857143,495.83333333333337,121.95,481.6666666666667,121.95C467.5,121.95,467.5,119.25000000000001,453.3333333333333,119.25000000000001C439.16666666666663,119.25000000000001,439.16666666666663,122.07857142857142,425,122.07857142857142C410.8333333333333,122.07857142857142,410.8333333333333,117.38571428571429,396.66666666666663,117.38571428571429C382.5,117.38571428571429,382.5,134.35714285714286,368.3333333333333,134.35714285714286C354.16666666666663,134.35714285714286,354.16666666666663,60.55714285714287,340,60.55714285714287C325.8333333333333,60.55714285714287,325.8333333333333,109.15714285714287,311.66666666666663,109.15714285714287C297.5,109.15714285714287,297.5,53.42142857142856,283.3333333333333,53.42142857142856C269.16666666666663,53.42142857142856,269.16666666666663,137.25,255,137.25C240.83333333333331,137.25,240.83333333333331,153.64285714285717,226.66666666666666,153.64285714285717C212.5,153.64285714285717,212.5,137.7,198.33333333333331,137.7C184.16666666666666,137.7,184.16666666666666,137.1857142857143,170,137.1857142857143C155.83333333333331,137.1857142857143,155.83333333333331,114.74999999999999,141.66666666666666,114.74999999999999C127.5,114.74999999999999,127.5,138.15,113.33333333333333,138.15C99.16666666666666,138.15,99.16666666666666,119.50714285714285,85,119.50714285714285C70.83333333333333,119.50714285714285,70.83333333333333,118.41428571428573,56.666666666666664,118.41428571428573C42.5,118.41428571428573,42.5,100.73571428571428,28.333333333333332,100.73571428571428C14.166666666666666,100.73571428571428,14.166666666666666,149.91428571428574,0,149.91428571428574Z"><title>Chrome Sync</title></path><path fill="#cccccc" d="M0,140.5285714285714C14.166666666666666,140.5285714285714,14.166666666666666,86.59285714285714,28.333333333333332,86.59285714285714C42.5,86.59285714285714,42.5,101.05714285714285,56.666666666666664,101.05714285714285C70.83333333333333,101.05714285714285,70.83333333333333,105.49285714285715,85,105.49285714285715C99.16666666666666,105.49285714285715,99.16666666666666,123.49285714285716,113.33333333333333,123.49285714285716C127.5,123.49285714285716,127.5,99.8357142857143,141.66666666666666,99.8357142857143C155.83333333333331,99.8357142857143,155.83333333333331,120.21428571428572,170,120.21428571428572C184.16666666666666,120.21428571428572,184.16666666666666,121.11428571428571,198.33333333333331,121.11428571428571C212.5,121.11428571428571,212.5,135.3857142857143,226.66666666666666,135.3857142857143C240.83333333333331,135.3857142857143,240.83333333333331,124.00714285714284,255,124.00714285714284C269.16666666666663,124.00714285714284,269.16666666666663,36.57857142857144,283.3333333333333,36.57857142857144C297.5,36.57857142857144,297.5,91.54285714285716,311.66666666666663,91.54285714285716C325.8333333333333,91.54285714285716,325.8333333333333,40.88571428571428,340,40.88571428571428C354.16666666666663,40.88571428571428,354.16666666666663,61.071428571428555,368.3333333333333,61.071428571428555C382.5,61.071428571428555,382.5,98.4857142857143,396.66666666666663,98.4857142857143C410.8333333333333,98.4857142857143,410.8333333333333,57.14999999999998,425,57.14999999999998C439.16666666666663,57.14999999999998,439.16666666666663,107.16428571428573,453.3333333333333,107.16428571428573C467.5,107.16428571428573,467.5,111.92142857142859,481.6666666666667,111.92142857142859C495.83333333333337,111.92142857142859,495.83333333333337,108.64285714285715,510,108.64285714285715C524.1666666666667,108.64285714285715,524.1666666666667,106.00714285714287,538.3333333333334,106.00714285714287C552.5,106.00714285714287,552.5,78.81428571428573,566.6666666666666,78.81428571428573C580.8333333333333,78.81428571428573,580.8333333333333,104.59285714285713,595,104.59285714285713C609.1666666666666,104.59285714285713,609.1666666666666,89.6142857142857,623.3333333333333,89.6142857142857C637.5,89.6142857142857,637.5,79.26428571428572,651.6666666666666,79.26428571428572C665.8333333333333,79.26428571428572,665.8333333333333,96.29999999999998,680,96.29999999999998C694.1666666666667,96.29999999999998,694.1666666666667,109.35,708.3333333333334,109.35C722.5,109.35,722.5,24.042857142857162,736.6666666666666,24.042857142857162C750.8333333333333,24.042857142857162,750.8333333333333,167.3357142857143,765,167.3357142857143L765,167.3357142857143C750.8333333333333,167.3357142857143,750.8333333333333,26.614285714285725,736.6666666666666,26.614285714285725C722.5,26.614285714285725,722.5,109.86428571428571,708.3333333333334,109.86428571428571C694.1666666666667,109.86428571428571,694.1666666666667,97.45714285714284,680,97.45714285714284C665.8333333333333,97.45714285714284,665.8333333333333,80.80714285714284,651.6666666666666,80.80714285714284C637.5,80.80714285714284,637.5,90.25714285714284,623.3333333333333,90.25714285714284C609.1666666666666,90.25714285714284,609.1666666666666,105.36428571428573,595,105.36428571428573C580.8333333333333,105.36428571428573,580.8333333333333,79.58571428571429,566.6666666666666,79.58571428571429C552.5,79.58571428571429,552.5,106.65,538.3333333333334,106.65C524.1666666666667,106.65,524.1666666666667,110.05714285714286,510,110.05714285714286C495.83333333333337,110.05714285714286,495.83333333333337,113.07857142857141,481.6666666666667,113.07857142857141C467.5,113.07857142857141,467.5,108.0642857142857,453.3333333333333,108.0642857142857C439.16666666666663,108.0642857142857,439.16666666666663,59.85,425,59.85C410.8333333333333,59.85,410.8333333333333,98.4857142857143,396.66666666666663,98.4857142857143C382.5,98.4857142857143,382.5,63.64285714285715,368.3333333333333,63.64285714285715C354.16666666666663,63.64285714285715,354.16666666666663,41.14285714285715,340,41.14285714285715C325.8333333333333,41.14285714285715,325.8333333333333,92.05714285714284,311.66666666666663,92.05714285714284C297.5,92.05714285714284,297.5,38.892857142857125,283.3333333333333,38.892857142857125C269.16666666666663,38.892857142857125,269.16666666666663,124.52142857142856,255,124.52142857142856C240.83333333333331,124.52142857142856,240.83333333333331,135.77142857142857,226.66666666666666,135.77142857142857C212.5,135.77142857142857,212.5,121.88571428571427,198.33333333333331,121.88571428571427C184.16666666666666,121.88571428571427,184.16666666666666,121.3714285714286,170,121.3714285714286C155.83333333333331,121.3714285714286,155.83333333333331,102.02142857142856,141.66666666666666,102.02142857142856C127.5,102.02142857142856,127.5,124.52142857142856,113.33333333333333,124.52142857142856C99.16666666666666,124.52142857142856,99.16666666666666,106.65,85,106.65C70.83333333333333,106.65,70.83333333333333,102.60000000000001,56.666666666666664,102.60000000000001C42.5,102.60000000000001,42.5,87.36428571428571,28.333333333333332,87.36428571428571C14.166666666666666,87.36428571428571,14.166666666666666,140.9142857142857,0,140.9142857142857Z"><title>Search</title></path><path fill="#8c564b" d="M0,140.5285714285714C14.166666666666666,140.5285714285714,14.166666666666666,86.59285714285714,28.333333333333332,86.59285714285714C42.5,86.59285714285714,42.5,101.05714285714285,56.666666666666664,101.05714285714285C70.83333333333333,101.05714285714285,70.83333333333333,105.49285714285715,85,105.49285714285715C99.16666666666666,105.49285714285715,99.16666666666666,123.49285714285716,113.33333333333333,123.49285714285716C127.5,123.49285714285716,127.5,99.8357142857143,141.66666666666666,99.8357142857143C155.83333333333331,99.8357142857143,155.83333333333331,119.57142857142858,170,119.57142857142858C184.16666666666666,119.57142857142858,184.16666666666666,121.11428571428571,198.33333333333331,121.11428571428571C212.5,121.11428571428571,212.5,135.3857142857143,226.66666666666666,135.3857142857143C240.83333333333331,135.3857142857143,240.83333333333331,117.70714285714286,255,117.70714285714286C269.16666666666663,117.70714285714286,269.16666666666663,36.57857142857144,283.3333333333333,36.57857142857144C297.5,36.57857142857144,297.5,80.99999999999999,311.66666666666663,80.99999999999999C325.8333333333333,80.99999999999999,325.8333333333333,40.24285714285713,340,40.24285714285713C354.16666666666663,40.24285714285713,354.16666666666663,60.942857142857136,368.3333333333333,60.942857142857136C382.5,60.942857142857136,382.5,98.4857142857143,396.66666666666663,98.4857142857143C410.8333333333333,98.4857142857143,410.8333333333333,57.02142857142856,425,57.02142857142856C439.16666666666663,57.02142857142856,439.16666666666663,107.16428571428573,453.3333333333333,107.16428571428573C467.5,107.16428571428573,467.5,111.79285714285713,481.6666666666667,111.79285714285713C495.83333333333337,111.79285714285713,495.83333333333337,108.64285714285715,510,108.64285714285715C524.1666666666667,108.64285714285715,524.1666666666667,106.00714285714287,538.3333333333334,106.00714285714287C552.5,106.00714285714287,552.5,78.55714285714285,566.6666666666666,78.55714285714285C580.8333333333333,78.55714285714285,580.8333333333333,104.59285714285713,595,104.59285714285713C609.1666666666666,104.59285714285713,609.1666666666666,89.6142857142857,623.3333333333333,89.6142857142857C637.5,89.6142857142857,637.5,78.87857142857142,651.6666666666666,78.87857142857142C665.8333333333333,78.87857142857142,665.8333333333333,96.29999999999998,680,96.29999999999998C694.1666666666667,96.29999999999998,694.1666666666667,109.35,708.3333333333334,109.35C722.5,109.35,722.5,23.9142857142857,736.6666666666666,23.9142857142857C750.8333333333333,23.9142857142857,750.8333333333333,167.3357142857143,765,167.3357142857143L765,167.3357142857143C750.8333333333333,167.3357142857143,750.8333333333333,24.042857142857162,736.6666666666666,24.042857142857162C722.5,24.042857142857162,722.5,109.35,708.3333333333334,109.35C694.1666666666667,109.35,694.1666666666667,96.29999999999998,680,96.29999999999998C665.8333333333333,96.29999999999998,665.8333333333333,78.87857142857142,651.6666666666666,78.87857142857142C637.5,78.87857142857142,637.5,89.6142857142857,623.3333333333333,89.6142857142857C609.1666666666666,89.6142857142857,609.1666666666666,104.59285714285713,595,104.59285714285713C580.8333333333333,104.59285714285713,580.8333333333333,78.55714285714285,566.6666666666666,78.55714285714285C552.5,78.55714285714285,552.5,106.00714285714287,538.3333333333334,106.00714285714287C524.1666666666667,106.00714285714287,524.1666666666667,108.64285714285715,510,108.64285714285715C495.83333333333337,108.64285714285715,495.83333333333337,111.79285714285713,481.6666666666667,111.79285714285713C467.5,111.79285714285713,467.5,107.16428571428573,453.3333333333333,107.16428571428573C439.16666666666663,107.16428571428573,439.16666666666663,57.02142857142856,425,57.02142857142856C410.8333333333333,57.02142857142856,410.8333333333333,98.4857142857143,396.66666666666663,98.4857142857143C382.5,98.4857142857143,382.5,60.942857142857136,368.3333333333333,60.942857142857136C354.16666666666663,60.942857142857136,354.16666666666663,40.24285714285713,340,40.24285714285713C325.8333333333333,40.24285714285713,325.8333333333333,80.99999999999999,311.66666666666663,80.99999999999999C297.5,80.99999999999999,297.5,36.57857142857144,283.3333333333333,36.57857142857144C269.16666666666663,36.57857142857144,269.16666666666663,117.70714285714286,255,117.70714285714286C240.83333333333331,117.70714285714286,240.83333333333331,135.3857142857143,226.66666666666666,135.3857142857143C212.5,135.3857142857143,212.5,121.11428571428571,198.33333333333331,121.11428571428571C184.16666666666666,121.11428571428571,184.16666666666666,119.57142857142858,170,119.57142857142858C155.83333333333331,119.57142857142858,155.83333333333331,99.8357142857143,141.66666666666666,99.8357142857143C127.5,99.8357142857143,127.5,123.49285714285716,113.33333333333333,123.49285714285716C99.16666666666666,123.49285714285716,99.16666666666666,105.49285714285715,85,105.49285714285715C70.83333333333333,105.49285714285715,70.83333333333333,101.05714285714285,56.666666666666664,101.05714285714285C42.5,101.05714285714285,42.5,86.59285714285714,28.333333333333332,86.59285714285714C14.166666666666666,86.59285714285714,14.166666666666666,140.5285714285714,0,140.5285714285714Z"><title>Finance</title></path><path fill="#cccccc" d="M0,140.5285714285714C14.166666666666666,140.5285714285714,14.166666666666666,86.59285714285714,28.333333333333332,86.59285714285714C42.5,86.59285714285714,42.5,101.05714285714285,56.666666666666664,101.05714285714285C70.83333333333333,101.05714285714285,70.83333333333333,105.49285714285715,85,105.49285714285715C99.16666666666666,105.49285714285715,99.16666666666666,123.49285714285716,113.33333333333333,123.49285714285716C127.5,123.49285714285716,127.5,99.8357142857143,141.66666666666666,99.8357142857143C155.83333333333331,99.8357142857143,155.83333333333331,120.08571428571426,170,120.08571428571426C184.16666666666666,120.08571428571426,184.16666666666666,121.11428571428571,198.33333333333331,121.11428571428571C212.5,121.11428571428571,212.5,135.3857142857143,226.66666666666666,135.3857142857143C240.83333333333331,135.3857142857143,240.83333333333331,124.00714285714284,255,124.00714285714284C269.16666666666663,124.00714285714284,269.16666666666663,36.57857142857144,283.3333333333333,36.57857142857144C297.5,36.57857142857144,297.5,80.99999999999999,311.66666666666663,80.99999999999999C325.8333333333333,80.99999999999999,325.8333333333333,40.24285714285713,340,40.24285714285713C354.16666666666663,40.24285714285713,354.16666666666663,61.071428571428555,368.3333333333333,61.071428571428555C382.5,61.071428571428555,382.5,98.4857142857143,396.66666666666663,98.4857142857143C410.8333333333333,98.4857142857143,410.8333333333333,57.14999999999998,425,57.14999999999998C439.16666666666663,57.14999999999998,439.16666666666663,107.16428571428573,453.3333333333333,107.16428571428573C467.5,107.16428571428573,467.5,111.92142857142859,481.6666666666667,111.92142857142859C495.83333333333337,111.92142857142859,495.83333333333337,108.64285714285715,510,108.64285714285715C524.1666666666667,108.64285714285715,524.1666666666667,106.00714285714287,538.3333333333334,106.00714285714287C552.5,106.00714285714287,552.5,78.68571428571427,566.6666666666666,78.68571428571427C580.8333333333333,78.68571428571427,580.8333333333333,104.59285714285713,595,104.59285714285713C609.1666666666666,104.59285714285713,609.1666666666666,89.6142857142857,623.3333333333333,89.6142857142857C637.5,89.6142857142857,637.5,78.87857142857142,651.6666666666666,78.87857142857142C665.8333333333333,78.87857142857142,665.8333333333333,96.29999999999998,680,96.29999999999998C694.1666666666667,96.29999999999998,694.1666666666667,109.35,708.3333333333334,109.35C722.5,109.35,722.5,24.042857142857162,736.6666666666666,24.042857142857162C750.8333333333333,24.042857142857162,750.8333333333333,167.3357142857143,765,167.3357142857143L765,167.3357142857143C750.8333333333333,167.3357142857143,750.8333333333333,24.042857142857162,736.6666666666666,24.042857142857162C722.5,24.042857142857162,722.5,109.35,708.3333333333334,109.35C694.1666666666667,109.35,694.1666666666667,96.29999999999998,680,96.29999999999998C665.8333333333333,96.29999999999998,665.8333333333333,79.26428571428572,651.6666666666666,79.26428571428572C637.5,79.26428571428572,637.5,89.6142857142857,623.3333333333333,89.6142857142857C609.1666666666666,89.6142857142857,609.1666666666666,104.59285714285713,595,104.59285714285713C580.8333333333333,104.59285714285713,580.8333333333333,78.81428571428573,566.6666666666666,78.81428571428573C552.5,78.81428571428573,552.5,106.00714285714287,538.3333333333334,106.00714285714287C524.1666666666667,106.00714285714287,524.1666666666667,108.64285714285715,510,108.64285714285715C495.83333333333337,108.64285714285715,495.83333333333337,111.92142857142859,481.6666666666667,111.92142857142859C467.5,111.92142857142859,467.5,107.16428571428573,453.3333333333333,107.16428571428573C439.16666666666663,107.16428571428573,439.16666666666663,57.14999999999998,425,57.14999999999998C410.8333333333333,57.14999999999998,410.8333333333333,98.4857142857143,396.66666666666663,98.4857142857143C382.5,98.4857142857143,382.5,61.071428571428555,368.3333333333333,61.071428571428555C354.16666666666663,61.071428571428555,354.16666666666663,40.88571428571428,340,40.88571428571428C325.8333333333333,40.88571428571428,325.8333333333333,91.54285714285716,311.66666666666663,91.54285714285716C297.5,91.54285714285716,297.5,36.57857142857144,283.3333333333333,36.57857142857144C269.16666666666663,36.57857142857144,269.16666666666663,124.00714285714284,255,124.00714285714284C240.83333333333331,124.00714285714284,240.83333333333331,135.3857142857143,226.66666666666666,135.3857142857143C212.5,135.3857142857143,212.5,121.11428571428571,198.33333333333331,121.11428571428571C184.16666666666666,121.11428571428571,184.16666666666666,120.21428571428572,170,120.21428571428572C155.83333333333331,120.21428571428572,155.83333333333331,99.8357142857143,141.66666666666666,99.8357142857143C127.5,99.8357142857143,127.5,123.49285714285716,113.33333333333333,123.49285714285716C99.16666666666666,123.49285714285716,99.16666666666666,105.49285714285715,85,105.49285714285715C70.83333333333333,105.49285714285715,70.83333333333333,101.05714285714285,56.666666666666664,101.05714285714285C42.5,101.05714285714285,42.5,86.59285714285714,28.333333333333332,86.59285714285714C14.166666666666666,86.59285714285714,14.166666666666666,140.5285714285714,0,140.5285714285714Z"><title>Wallet</title></path><path fill="#ff7f0e" d="M0,140.5285714285714C14.166666666666666,140.5285714285714,14.166666666666666,86.59285714285714,28.333333333333332,86.59285714285714C42.5,86.59285714285714,42.5,101.05714285714285,56.666666666666664,101.05714285714285C70.83333333333333,101.05714285714285,70.83333333333333,105.49285714285715,85,105.49285714285715C99.16666666666666,105.49285714285715,99.16666666666666,123.49285714285716,113.33333333333333,123.49285714285716C127.5,123.49285714285716,127.5,99.8357142857143,141.66666666666666,99.8357142857143C155.83333333333331,99.8357142857143,155.83333333333331,119.57142857142858,170,119.57142857142858C184.16666666666666,119.57142857142858,184.16666666666666,121.11428571428571,198.33333333333331,121.11428571428571C212.5,121.11428571428571,212.5,135.3857142857143,226.66666666666666,135.3857142857143C240.83333333333331,135.3857142857143,240.83333333333331,117.70714285714286,255,117.70714285714286C269.16666666666663,117.70714285714286,269.16666666666663,36.57857142857144,283.3333333333333,36.57857142857144C297.5,36.57857142857144,297.5,80.99999999999999,311.66666666666663,80.99999999999999C325.8333333333333,80.99999999999999,325.8333333333333,40.24285714285713,340,40.24285714285713C354.16666666666663,40.24285714285713,354.16666666666663,61.071428571428555,368.3333333333333,61.071428571428555C382.5,61.071428571428555,382.5,98.4857142857143,396.66666666666663,98.4857142857143C410.8333333333333,98.4857142857143,410.8333333333333,57.02142857142856,425,57.02142857142856C439.16666666666663,57.02142857142856,439.16666666666663,107.16428571428573,453.3333333333333,107.16428571428573C467.5,107.16428571428573,467.5,111.79285714285713,481.6666666666667,111.79285714285713C495.83333333333337,111.79285714285713,495.83333333333337,108.64285714285715,510,108.64285714285715C524.1666666666667,108.64285714285715,524.1666666666667,106.00714285714287,538.3333333333334,106.00714285714287C552.5,106.00714285714287,552.5,78.55714285714285,566.6666666666666,78.55714285714285C580.8333333333333,78.55714285714285,580.8333333333333,104.59285714285713,595,104.59285714285713C609.1666666666666,104.59285714285713,609.1666666666666,89.6142857142857,623.3333333333333,89.6142857142857C637.5,89.6142857142857,637.5,78.87857142857142,651.6666666666666,78.87857142857142C665.8333333333333,78.87857142857142,665.8333333333333,96.29999999999998,680,96.29999999999998C694.1666666666667,96.29999999999998,694.1666666666667,109.35,708.3333333333334,109.35C722.5,109.35,722.5,24.042857142857162,736.6666666666666,24.042857142857162C750.8333333333333,24.042857142857162,750.8333333333333,167.3357142857143,765,167.3357142857143L765,167.3357142857143C750.8333333333333,167.3357142857143,750.8333333333333,24.042857142857162,736.6666666666666,24.042857142857162C722.5,24.042857142857162,722.5,109.35,708.3333333333334,109.35C694.1666666666667,109.35,694.1666666666667,96.29999999999998,680,96.29999999999998C665.8333333333333,96.29999999999998,665.8333333333333,78.87857142857142,651.6666666666666,78.87857142857142C637.5,78.87857142857142,637.5,89.6142857142857,623.3333333333333,89.6142857142857C609.1666666666666,89.6142857142857,609.1666666666666,104.59285714285713,595,104.59285714285713C580.8333333333333,104.59285714285713,580.8333333333333,78.68571428571427,566.6666666666666,78.68571428571427C552.5,78.68571428571427,552.5,106.00714285714287,538.3333333333334,106.00714285714287C524.1666666666667,106.00714285714287,524.1666666666667,108.64285714285715,510,108.64285714285715C495.83333333333337,108.64285714285715,495.83333333333337,111.79285714285713,481.6666666666667,111.79285714285713C467.5,111.79285714285713,467.5,107.16428571428573,453.3333333333333,107.16428571428573C439.16666666666663,107.16428571428573,439.16666666666663,57.14999999999998,425,57.14999999999998C410.8333333333333,57.14999999999998,410.8333333333333,98.4857142857143,396.66666666666663,98.4857142857143C382.5,98.4857142857143,382.5,61.071428571428555,368.3333333333333,61.071428571428555C354.16666666666663,61.071428571428555,354.16666666666663,40.24285714285713,340,40.24285714285713C325.8333333333333,40.24285714285713,325.8333333333333,80.99999999999999,311.66666666666663,80.99999999999999C297.5,80.99999999999999,297.5,36.57857142857144,283.3333333333333,36.57857142857144C269.16666666666663,36.57857142857144,269.16666666666663,117.70714285714286,255,117.70714285714286C240.83333333333331,117.70714285714286,240.83333333333331,135.3857142857143,226.66666666666666,135.3857142857143C212.5,135.3857142857143,212.5,121.11428571428571,198.33333333333331,121.11428571428571C184.16666666666666,121.11428571428571,184.16666666666666,119.57142857142858,170,119.57142857142858C155.83333333333331,119.57142857142858,155.83333333333331,99.8357142857143,141.66666666666666,99.8357142857143C127.5,99.8357142857143,127.5,123.49285714285716,113.33333333333333,123.49285714285716C99.16666666666666,123.49285714285716,99.16666666666666,105.49285714285715,85,105.49285714285715C70.83333333333333,105.49285714285715,70.83333333333333,101.05714285714285,56.666666666666664,101.05714285714285C42.5,101.05714285714285,42.5,86.59285714285714,28.333333333333332,86.59285714285714C14.166666666666666,86.59285714285714,14.166666666666666,140.5285714285714,0,140.5285714285714Z"><title>Apps Search</title></path><path fill="#cccccc" d="M0,140.5285714285714C14.166666666666666,140.5285714285714,14.166666666666666,86.59285714285714,28.333333333333332,86.59285714285714C42.5,86.59285714285714,42.5,101.05714285714285,56.666666666666664,101.05714285714285C70.83333333333333,101.05714285714285,70.83333333333333,105.49285714285715,85,105.49285714285715C99.16666666666666,105.49285714285715,99.16666666666666,123.49285714285716,113.33333333333333,123.49285714285716C127.5,123.49285714285716,127.5,99.8357142857143,141.66666666666666,99.8357142857143C155.83333333333331,99.8357142857143,155.83333333333331,119.57142857142858,170,119.57142857142858C184.16666666666666,119.57142857142858,184.16666666666666,121.11428571428571,198.33333333333331,121.11428571428571C212.5,121.11428571428571,212.5,135.3857142857143,226.66666666666666,135.3857142857143C240.83333333333331,135.3857142857143,240.83333333333331,117.70714285714286,255,117.70714285714286C269.16666666666663,117.70714285714286,269.16666666666663,36.57857142857144,283.3333333333333,36.57857142857144C297.5,36.57857142857144,297.5,80.99999999999999,311.66666666666663,80.99999999999999C325.8333333333333,80.99999999999999,325.8333333333333,40.24285714285713,340,40.24285714285713C354.16666666666663,40.24285714285713,354.16666666666663,61.071428571428555,368.3333333333333,61.071428571428555C382.5,61.071428571428555,382.5,98.4857142857143,396.66666666666663,98.4857142857143C410.8333333333333,98.4857142857143,410.8333333333333,57.14999999999998,425,57.14999999999998C439.16666666666663,57.14999999999998,439.16666666666663,107.16428571428573,453.3333333333333,107.16428571428573C467.5,107.16428571428573,467.5,111.79285714285713,481.6666666666667,111.79285714285713C495.83333333333337,111.79285714285713,495.83333333333337,108.64285714285715,510,108.64285714285715C524.1666666666667,108.64285714285715,524.1666666666667,106.00714285714287,538.3333333333334,106.00714285714287C552.5,106.00714285714287,552.5,78.68571428571427,566.6666666666666,78.68571428571427C580.8333333333333,78.68571428571427,580.8333333333333,104.59285714285713,595,104.59285714285713C609.1666666666666,104.59285714285713,609.1666666666666,89.6142857142857,623.3333333333333,89.6142857142857C637.5,89.6142857142857,637.5,78.87857142857142,651.6666666666666,78.87857142857142C665.8333333333333,78.87857142857142,665.8333333333333,96.29999999999998,680,96.29999999999998C694.1666666666667,96.29999999999998,694.1666666666667,109.35,708.3333333333334,109.35C722.5,109.35,722.5,24.042857142857162,736.6666666666666,24.042857142857162C750.8333333333333,24.042857142857162,750.8333333333333,167.3357142857143,765,167.3357142857143L765,167.3357142857143C750.8333333333333,167.3357142857143,750.8333333333333,24.042857142857162,736.6666666666666,24.042857142857162C722.5,24.042857142857162,722.5,109.35,708.3333333333334,109.35C694.1666666666667,109.35,694.1666666666667,96.29999999999998,680,96.29999999999998C665.8333333333333,96.29999999999998,665.8333333333333,78.87857142857142,651.6666666666666,78.87857142857142C637.5,78.87857142857142,637.5,89.6142857142857,623.3333333333333,89.6142857142857C609.1666666666666,89.6142857142857,609.1666666666666,104.59285714285713,595,104.59285714285713C580.8333333333333,104.59285714285713,580.8333333333333,78.68571428571427,566.6666666666666,78.68571428571427C552.5,78.68571428571427,552.5,106.00714285714287,538.3333333333334,106.00714285714287C524.1666666666667,106.00714285714287,524.1666666666667,108.64285714285715,510,108.64285714285715C495.83333333333337,108.64285714285715,495.83333333333337,111.92142857142859,481.6666666666667,111.92142857142859C467.5,111.92142857142859,467.5,107.16428571428573,453.3333333333333,107.16428571428573C439.16666666666663,107.16428571428573,439.16666666666663,57.14999999999998,425,57.14999999999998C410.8333333333333,57.14999999999998,410.8333333333333,98.4857142857143,396.66666666666663,98.4857142857143C382.5,98.4857142857143,382.5,61.071428571428555,368.3333333333333,61.071428571428555C354.16666666666663,61.071428571428555,354.16666666666663,40.24285714285713,340,40.24285714285713C325.8333333333333,40.24285714285713,325.8333333333333,80.99999999999999,311.66666666666663,80.99999999999999C297.5,80.99999999999999,297.5,36.57857142857144,283.3333333333333,36.57857142857144C269.16666666666663,36.57857142857144,269.16666666666663,117.70714285714286,255,117.70714285714286C240.83333333333331,117.70714285714286,240.83333333333331,135.3857142857143,226.66666666666666,135.3857142857143C212.5,135.3857142857143,212.5,121.11428571428571,198.33333333333331,121.11428571428571C184.16666666666666,121.11428571428571,184.16666666666666,120.08571428571426,170,120.08571428571426C155.83333333333331,120.08571428571426,155.83333333333331,99.8357142857143,141.66666666666666,99.8357142857143C127.5,99.8357142857143,127.5,123.49285714285716,113.33333333333333,123.49285714285716C99.16666666666666,123.49285714285716,99.16666666666666,105.49285714285715,85,105.49285714285715C70.83333333333333,105.49285714285715,70.83333333333333,101.05714285714285,56.666666666666664,101.05714285714285C42.5,101.05714285714285,42.5,86.59285714285714,28.333333333333332,86.59285714285714C14.166666666666666,86.59285714285714,14.166666666666666,140.5285714285714,0,140.5285714285714Z"><title>Translate</title></path><path fill="#1f77b4" d="M0,140.5285714285714C14.166666666666666,140.5285714285714,14.166666666666666,86.59285714285714,28.333333333333332,86.59285714285714C42.5,86.59285714285714,42.5,101.05714285714285,56.666666666666664,101.05714285714285C70.83333333333333,101.05714285714285,70.83333333333333,105.49285714285715,85,105.49285714285715C99.16666666666666,105.49285714285715,99.16666666666666,123.49285714285716,113.33333333333333,123.49285714285716C127.5,123.49285714285716,127.5,99.8357142857143,141.66666666666666,99.8357142857143C155.83333333333331,99.8357142857143,155.83333333333331,119.57142857142858,170,119.57142857142858C184.16666666666666,119.57142857142858,184.16666666666666,121.11428571428571,198.33333333333331,121.11428571428571C212.5,121.11428571428571,212.5,135.3857142857143,226.66666666666666,135.3857142857143C240.83333333333331,135.3857142857143,240.83333333333331,117.70714285714286,255,117.70714285714286C269.16666666666663,117.70714285714286,269.16666666666663,36.57857142857144,283.3333333333333,36.57857142857144C297.5,36.57857142857144,297.5,80.99999999999999,311.66666666666663,80.99999999999999C325.8333333333333,80.99999999999999,325.8333333333333,40.24285714285713,340,40.24285714285713C354.16666666666663,40.24285714285713,354.16666666666663,60.942857142857136,368.3333333333333,60.942857142857136C382.5,60.942857142857136,382.5,98.4857142857143,396.66666666666663,98.4857142857143C410.8333333333333,98.4857142857143,410.8333333333333,57.02142857142856,425,57.02142857142856C439.16666666666663,57.02142857142856,439.16666666666663,107.16428571428573,453.3333333333333,107.16428571428573C467.5,107.16428571428573,467.5,111.79285714285713,481.6666666666667,111.79285714285713C495.83333333333337,111.79285714285713,495.83333333333337,108.64285714285715,510,108.64285714285715C524.1666666666667,108.64285714285715,524.1666666666667,106.00714285714287,538.3333333333334,106.00714285714287C552.5,106.00714285714287,552.5,78.55714285714285,566.6666666666666,78.55714285714285C580.8333333333333,78.55714285714285,580.8333333333333,104.59285714285713,595,104.59285714285713C609.1666666666666,104.59285714285713,609.1666666666666,89.6142857142857,623.3333333333333,89.6142857142857C637.5,89.6142857142857,637.5,78.87857142857142,651.6666666666666,78.87857142857142C665.8333333333333,78.87857142857142,665.8333333333333,96.29999999999998,680,96.29999999999998C694.1666666666667,96.29999999999998,694.1666666666667,109.35,708.3333333333334,109.35C722.5,109.35,722.5,24.042857142857162,736.6666666666666,24.042857142857162C750.8333333333333,24.042857142857162,750.8333333333333,167.3357142857143,765,167.3357142857143L765,167.3357142857143C750.8333333333333,167.3357142857143,750.8333333333333,24.042857142857162,736.6666666666666,24.042857142857162C722.5,24.042857142857162,722.5,109.35,708.3333333333334,109.35C694.1666666666667,109.35,694.1666666666667,96.29999999999998,680,96.29999999999998C665.8333333333333,96.29999999999998,665.8333333333333,78.87857142857142,651.6666666666666,78.87857142857142C637.5,78.87857142857142,637.5,89.6142857142857,623.3333333333333,89.6142857142857C609.1666666666666,89.6142857142857,609.1666666666666,104.59285714285713,595,104.59285714285713C580.8333333333333,104.59285714285713,580.8333333333333,78.55714285714285,566.6666666666666,78.55714285714285C552.5,78.55714285714285,552.5,106.00714285714287,538.3333333333334,106.00714285714287C524.1666666666667,106.00714285714287,524.1666666666667,108.64285714285715,510,108.64285714285715C495.83333333333337,108.64285714285715,495.83333333333337,111.79285714285713,481.6666666666667,111.79285714285713C467.5,111.79285714285713,467.5,107.16428571428573,453.3333333333333,107.16428571428573C439.16666666666663,107.16428571428573,439.16666666666663,57.02142857142856,425,57.02142857142856C410.8333333333333,57.02142857142856,410.8333333333333,98.4857142857143,396.66666666666663,98.4857142857143C382.5,98.4857142857143,382.5,61.071428571428555,368.3333333333333,61.071428571428555C354.16666666666663,61.071428571428555,354.16666666666663,40.24285714285713,340,40.24285714285713C325.8333333333333,40.24285714285713,325.8333333333333,80.99999999999999,311.66666666666663,80.99999999999999C297.5,80.99999999999999,297.5,36.57857142857144,283.3333333333333,36.57857142857144C269.16666666666663,36.57857142857144,269.16666666666663,117.70714285714286,255,117.70714285714286C240.83333333333331,117.70714285714286,240.83333333333331,135.3857142857143,226.66666666666666,135.3857142857143C212.5,135.3857142857143,212.5,121.11428571428571,198.33333333333331,121.11428571428571C184.16666666666666,121.11428571428571,184.16666666666666,119.57142857142858,170,119.57142857142858C155.83333333333331,119.57142857142858,155.83333333333331,99.8357142857143,141.66666666666666,99.8357142857143C127.5,99.8357142857143,127.5,123.49285714285716,113.33333333333333,123.49285714285716C99.16666666666666,123.49285714285716,99.16666666666666,105.49285714285715,85,105.49285714285715C70.83333333333333,105.49285714285715,70.83333333333333,101.05714285714285,56.666666666666664,101.05714285714285C42.5,101.05714285714285,42.5,86.59285714285714,28.333333333333332,86.59285714285714C14.166666666666666,86.59285714285714,14.166666666666666,140.5285714285714,0,140.5285714285714Z"><title>Account Central</title></path><path fill="#d62728" d="M0,140.5285714285714C14.166666666666666,140.5285714285714,14.166666666666666,86.59285714285714,28.333333333333332,86.59285714285714C42.5,86.59285714285714,42.5,101.05714285714285,56.666666666666664,101.05714285714285C70.83333333333333,101.05714285714285,70.83333333333333,105.49285714285715,85,105.49285714285715C99.16666666666666,105.49285714285715,99.16666666666666,123.49285714285716,113.33333333333333,123.49285714285716C127.5,123.49285714285716,127.5,99.8357142857143,141.66666666666666,99.8357142857143C155.83333333333331,99.8357142857143,155.83333333333331,120.08571428571426,170,120.08571428571426C184.16666666666666,120.08571428571426,184.16666666666666,121.11428571428571,198.33333333333331,121.11428571428571C212.5,121.11428571428571,212.5,135.3857142857143,226.66666666666666,135.3857142857143C240.83333333333331,135.3857142857143,240.83333333333331,117.70714285714286,255,117.70714285714286C269.16666666666663,117.70714285714286,269.16666666666663,36.57857142857144,283.3333333333333,36.57857142857144C297.5,36.57857142857144,297.5,80.99999999999999,311.66666666666663,80.99999999999999C325.8333333333333,80.99999999999999,325.8333333333333,40.24285714285713,340,40.24285714285713C354.16666666666663,40.24285714285713,354.16666666666663,61.071428571428555,368.3333333333333,61.071428571428555C382.5,61.071428571428555,382.5,98.4857142857143,396.66666666666663,98.4857142857143C410.8333333333333,98.4857142857143,410.8333333333333,57.14999999999998,425,57.14999999999998C439.16666666666663,57.14999999999998,439.16666666666663,107.16428571428573,453.3333333333333,107.16428571428573C467.5,107.16428571428573,467.5,111.92142857142859,481.6666666666667,111.92142857142859C495.83333333333337,111.92142857142859,495.83333333333337,108.64285714285715,510,108.64285714285715C524.1666666666667,108.64285714285715,524.1666666666667,106.00714285714287,538.3333333333334,106.00714285714287C552.5,106.00714285714287,552.5,78.68571428571427,566.6666666666666,78.68571428571427C580.8333333333333,78.68571428571427,580.8333333333333,104.59285714285713,595,104.59285714285713C609.1666666666666,104.59285714285713,609.1666666666666,89.6142857142857,623.3333333333333,89.6142857142857C637.5,89.6142857142857,637.5,78.87857142857142,651.6666666666666,78.87857142857142C665.8333333333333,78.87857142857142,665.8333333333333,96.29999999999998,680,96.29999999999998C694.1666666666667,96.29999999999998,694.1666666666667,109.35,708.3333333333334,109.35C722.5,109.35,722.5,24.042857142857162,736.6666666666666,24.042857142857162C750.8333333333333,24.042857142857162,750.8333333333333,167.3357142857143,765,167.3357142857143L765,167.3357142857143C750.8333333333333,167.3357142857143,750.8333333333333,24.042857142857162,736.6666666666666,24.042857142857162C722.5,24.042857142857162,722.5,109.35,708.3333333333334,109.35C694.1666666666667,109.35,694.1666666666667,96.29999999999998,680,96.29999999999998C665.8333333333333,96.29999999999998,665.8333333333333,78.87857142857142,651.6666666666666,78.87857142857142C637.5,78.87857142857142,637.5,89.6142857142857,623.3333333333333,89.6142857142857C609.1666666666666,89.6142857142857,609.1666666666666,104.59285714285713,595,104.59285714285713C580.8333333333333,104.59285714285713,580.8333333333333,78.68571428571427,566.6666666666666,78.68571428571427C552.5,78.68571428571427,552.5,106.00714285714287,538.3333333333334,106.00714285714287C524.1666666666667,106.00714285714287,524.1666666666667,108.64285714285715,510,108.64285714285715C495.83333333333337,108.64285714285715,495.83333333333337,111.92142857142859,481.6666666666667,111.92142857142859C467.5,111.92142857142859,467.5,107.16428571428573,453.3333333333333,107.16428571428573C439.16666666666663,107.16428571428573,439.16666666666663,57.14999999999998,425,57.14999999999998C410.8333333333333,57.14999999999998,410.8333333333333,98.4857142857143,396.66666666666663,98.4857142857143C382.5,98.4857142857143,382.5,61.071428571428555,368.3333333333333,61.071428571428555C354.16666666666663,61.071428571428555,354.16666666666663,40.24285714285713,340,40.24285714285713C325.8333333333333,40.24285714285713,325.8333333333333,80.99999999999999,311.66666666666663,80.99999999999999C297.5,80.99999999999999,297.5,36.57857142857144,283.3333333333333,36.57857142857144C269.16666666666663,36.57857142857144,269.16666666666663,124.00714285714284,255,124.00714285714284C240.83333333333331,124.00714285714284,240.83333333333331,135.3857142857143,226.66666666666666,135.3857142857143C212.5,135.3857142857143,212.5,121.11428571428571,198.33333333333331,121.11428571428571C184.16666666666666,121.11428571428571,184.16666666666666,120.08571428571426,170,120.08571428571426C155.83333333333331,120.08571428571426,155.83333333333331,99.8357142857143,141.66666666666666,99.8357142857143C127.5,99.8357142857143,127.5,123.49285714285716,113.33333333333333,123.49285714285716C99.16666666666666,123.49285714285716,99.16666666666666,105.49285714285715,85,105.49285714285715C70.83333333333333,105.49285714285715,70.83333333333333,101.05714285714285,56.666666666666664,101.05714285714285C42.5,101.05714285714285,42.5,86.59285714285714,28.333333333333332,86.59285714285714C14.166666666666666,86.59285714285714,14.166666666666666,140.5285714285714,0,140.5285714285714Z"><title>Chrome Webstore</title></path></g><g id="xAxis" transform="translate(0,360)" fill="none" font-size="10" font-family="sans-serif" text-anchor="middle"><path class="domain" stroke="currentColor" d="M0.5,0.5H765.5"/><g class="tick" opacity="1" transform="translate(0.5,0)"><line stroke="currentColor" y2="6"/><text fill="currentColor" y="9" dy="0.71em">Wed 25</text></g><g class="tick" opacity="1" transform="translate(57.166666666666664,0)"><line stroke="currentColor" y2="6"/><text fill="currentColor" y="9" dy="0.71em">Fri 27</text></g><g class="tick" opacity="1" transform="translate(113.83333333333333,0)"><line stroke="currentColor" y2="6"/><text fill="currentColor" y="9" dy="0.71em">Oct 29</text></g><g class="tick" opacity="1" transform="translate(170.5,0)"><line stroke="currentColor" y2="6"/><text fill="currentColor" y="9" dy="0.71em">Tue 31</text></g><g class="tick" opacity="1" transform="translate(198.83333333333331,0)"><line stroke="currentColor" y2="6"/><text fill="currentColor" y="9" dy="0.71em">November</text></g><g class="tick" opacity="1" transform="translate(255.5,0)"><line stroke="currentColor" y2="6"/><text fill="currentColor" y="9" dy="0.71em">Fri 03</text></g><g class="tick" opacity="1" transform="translate(312.16666666666663,0)"><line stroke="currentColor" y2="6"/><text fill="currentColor" y="9" dy="0.71em">Nov 05</text></g><g class="tick" opacity="1" transform="translate(368.8333333333333,0)"><line stroke="currentColor" y2="6"/><text fill="currentColor" y="9" dy="0.71em">Tue 07</text></g><g class="tick" opacity="1" transform="translate(425.5,0)"><line stroke="currentColor" y2="6"/><text fill="currentColor" y="9" dy="0.71em">Thu 09</text></g><g class="tick" opacity="1" transform="translate(482.1666666666667,0)"><line stroke="currentColor" y2="6"/><text fill="currentColor" y="9" dy="0.71em">Sat 11</text></g><g class="tick" opacity="1" transform="translate(538.8333333333334,0)"><line stroke="currentColor" y2="6"/><text fill="currentColor" y="9" dy="0.71em">Mon 13</text></g><g class="tick" opacity="1" transform="translate(595.5,0)"><line stroke="currentColor" y2="6"/><text fill="currentColor" y="9" dy="0.71em">Wed 15</text></g><g class="tick" opacity="1" transform="translate(652.1666666666666,0)"><line stroke="currentColor" y2="6"/><text fill="currentColor" y="9" dy="0.71em">Fri 17</text></g><g class="tick" opacity="1" transform="translate(708.8333333333334,0)"><line stroke="currentColor" y2="6"/><text fill="currentColor" y="9" dy="0.71em">Nov 19</text></g><g class="tick" opacity="1" transform="translate(765.5,0)"><line stroke="currentColor" y2="6"/><text fill="currentColor" y="9" dy="0.71em">Tue 21</text></g></g><text y="356" x="765" text-anchor="end" style="font-family: Arial, sans-serif; font-size: 12px; fill: rgb(123, 123, 123); font-weight: bold;">Activity Timestamp</text><text x="4" text-anchor="start" dominant-baseline="hanging" style="font-family: Arial, sans-serif; font-size: 12px; fill: rgb(123, 123, 123); font-weight: bold;">Gaia ID</text><g id="labels"><text x="283.3333333333333" y="208.0285714285714" text-anchor="middle" alignment-baseline="middle" style="font-family: Arial, sans-serif; font-size: 10px; fill: black; font-weight: bold;">Other</text><text x="56.666666666666664" y="106.77857142857142" text-anchor="middle" alignment-baseline="middle" style="font-family: Arial, sans-serif; font-size: 10px; fill: black; font-weight: bold;">Play</text><text x="56.666666666666664" y="152.74285714285713" text-anchor="middle" alignment-baseline="middle" style="font-family: Arial, sans-serif; font-size: 10px; fill: black; font-weight: bold;">YouTube</text><text x="368.3333333333333" y="71.16428571428574" text-anchor="middle" alignment-baseline="middle" style="font-family: Arial, sans-serif; font-size: 10px; fill: black; font-weight: bold;">Gmail</text><text x="566.6666666666666" y="111.98571428571428" text-anchor="middle" alignment-baseline="middle" style="font-family: Arial, sans-serif; font-size: 10px; fill: black; font-weight: bold;">Drive</text><text x="595" y="131.20714285714286" text-anchor="middle" alignment-baseline="middle" style="font-family: Arial, sans-serif; font-size: 10px; fill: black; font-weight: bold;">Photos</text><text x="340" y="164.18571428571428" text-anchor="middle" alignment-baseline="middle" style="font-family: Arial, sans-serif; font-size: 10px; fill: black; font-weight: bold;">Maps</text><text x="736.6666666666666" y="38.764285714285705" text-anchor="middle" alignment-baseline="middle" style="font-family: Arial, sans-serif; font-size: 10px; fill: black; font-weight: bold;">Chrome Sync</text><text x="425" y="58.49999999999999" text-anchor="middle" alignment-baseline="middle" style="font-family: Arial, sans-serif; font-size: 10px; fill: black; font-weight: bold;">Search</text><text x="736.6666666666666" y="23.97857142857143" text-anchor="middle" alignment-baseline="middle" style="font-family: Arial, sans-serif; font-size: 10px; fill: black; font-weight: bold;">Finance</text><text x="311.66666666666663" y="86.27142857142857" text-anchor="middle" alignment-baseline="middle" style="font-family: Arial, sans-serif; font-size: 10px; fill: black; font-weight: bold;">Wallet</text><text x="425" y="57.08571428571429" text-anchor="middle" alignment-baseline="middle" style="font-family: Arial, sans-serif; font-size: 10px; fill: black; font-weight: bold;">Apps Search</text><text x="170" y="119.82857142857142" text-anchor="middle" alignment-baseline="middle" style="font-family: Arial, sans-serif; font-size: 10px; fill: black; font-weight: bold;">Translate</text><text x="368.3333333333333" y="61.00714285714287" text-anchor="middle" alignment-baseline="middle" style="font-family: Arial, sans-serif; font-size: 10px; fill: black; font-weight: bold;">Account Central</text><text x="255" y="120.85714285714286" text-anchor="middle" alignment-baseline="middle" style="font-family: Arial, sans-serif; font-size: 10px; fill: black; font-weight: bold;">Chrome Webstore</text></g></g><text x="4" y="4" style="font-family: Arial, sans-serif; font-size: 12px; fill: black; font-weight: bold; dominant-baseline: hanging;"/></g></g><g id="legend" transform="translate(805,20)"><g transform="translate(5,0)"><g class="legendColor" transform="translate(0,0)"><g class="legendCells" transform="translate(0,16)"><g class="cell" transform="translate(0, 0)"><rect class="swatch" height="15" width="15" style="fill: rgb(31, 119, 180);"/><text class="label" transform="translate( 20, 12.5)" font-family="&quot;Arial&quot;, sans-serif" font-size="10px"><tspan x="0" dy="0em">Account</tspan><tspan x="0" dy="1.2em">Central</tspan></text></g><g class="cell" transform="translate(0, 36.60000038146973)"><rect class="swatch" height="15" width="15" style="fill: rgb(255, 127, 14);"/><text class="label" transform="translate( 20, 12.5)" font-family="&quot;Arial&quot;, sans-serif" font-size="10px"><tspan x="0" dy="0em">Apps Search</tspan></text></g><g class="cell" transform="translate(0, 57.60000038146973)"><rect class="swatch" height="15" width="15" style="fill: rgb(44, 160, 44);"/><text class="label" transform="translate( 20, 12.5)" font-family="&quot;Arial&quot;, sans-serif" font-size="10px"><tspan x="0" dy="0em">Chrome Sync</tspan></text></g><g class="cell" transform="translate(0, 78.60000038146973)"><rect class="swatch" height="15" width="15" style="fill: rgb(214, 39, 40);"/><text class="label" transform="translate( 20, 12.5)" font-family="&quot;Arial&quot;, sans-serif" font-size="10px"><tspan x="0" dy="0em">Chrome</tspan><tspan x="0" dy="1.2em">Webstore</tspan></text></g><g class="cell" transform="translate(0, 115.20000076293945)"><rect class="swatch" height="15" width="15" style="fill: rgb(148, 103, 189);"/><text class="label" transform="translate( 20, 12.5)" font-family="&quot;Arial&quot;, sans-serif" font-size="10px"><tspan x="0" dy="0em">Drive</tspan></text></g><g class="cell" transform="translate(0, 136.20000076293945)"><rect class="swatch" height="15" width="15" style="fill: rgb(140, 86, 75);"/><text class="label" transform="translate( 20, 12.5)" font-family="&quot;Arial&quot;, sans-serif" font-size="10px"><tspan x="0" dy="0em">Finance</tspan></text></g><g class="cell" transform="translate(0, 157.20000076293945)"><rect class="swatch" height="15" width="15" style="fill: rgb(227, 119, 194);"/><text class="label" transform="translate( 20, 12.5)" font-family="&quot;Arial&quot;, sans-serif" font-size="10px"><tspan x="0" dy="0em">Gmail</tspan></text></g><g class="cell" transform="translate(0, 178.20000076293945)"><rect class="swatch" height="15" width="15" style="fill: rgb(127, 127, 127);"/><text class="label" transform="translate( 20, 12.5)" font-family="&quot;Arial&quot;, sans-serif" font-size="10px"><tspan x="0" dy="0em">Maps</tspan></text></g><g class="cell" transform="translate(0, 199.20000076293945)"><rect class="swatch" height="15" width="15" style="fill: rgb(188, 189, 34);"/><text class="label" transform="translate( 20, 12.5)" font-family="&quot;Arial&quot;, sans-serif" font-size="10px"><tspan x="0" dy="0em">Other</tspan></text></g><g class="cell" transform="translate(0, 220.20000076293945)"><rect class="swatch" height="15" width="15" style="fill: rgb(23, 190, 207);"/><text class="label" transform="translate( 20, 12.5)" font-family="&quot;Arial&quot;, sans-serif" font-size="10px"><tspan x="0" dy="0em">Photos</tspan></text></g><g class="cell" transform="translate(0, 241.20000076293945)"><rect class="swatch" height="15" width="15" style="fill: rgb(204, 204, 204);"/><text class="label" transform="translate( 20, 12.5)" font-family="&quot;Arial&quot;, sans-serif" font-size="10px"><tspan x="0" dy="0em">Play</tspan></text></g><g class="cell" transform="translate(0, 262.20000076293945)"><rect class="swatch" height="15" width="15" style="fill: rgb(204, 204, 204);"/><text class="label" transform="translate( 20, 12.5)" font-family="&quot;Arial&quot;, sans-serif" font-size="10px"><tspan x="0" dy="0em">Search</tspan></text></g><g class="cell" transform="translate(0, 283.20000076293945)"><rect class="swatch" height="15" width="15" style="fill: rgb(204, 204, 204);"/><text class="label" transform="translate( 20, 12.5)" font-family="&quot;Arial&quot;, sans-serif" font-size="10px"><tspan x="0" dy="0em">Translate</tspan></text></g><g class="cell" transform="translate(0, 304.20000076293945)"><rect class="swatch" height="15" width="15" style="fill: rgb(204, 204, 204);"/><text class="label" transform="translate( 20, 12.5)" font-family="&quot;Arial&quot;, sans-serif" font-size="10px"><tspan x="0" dy="0em">Wallet</tspan></text></g><g class="cell" transform="translate(0, 325.20000076293945)"><rect class="swatch" height="15" width="15" style="fill: rgb(248, 231, 28);"/><text class="label" transform="translate( 20, 12.5)" font-family="&quot;Arial&quot;, sans-serif" font-size="10px"><tspan x="0" dy="0em">YouTube</tspan></text></g></g><text class="legendTitle" font-family="&quot;Arial&quot;, sans-serif" font-size="12px" font-weight="bold"><tspan x="0" dy="0em">Colors</tspan></text></g></g></g></svg>